%TF.GenerationSoftware,KiCad,Pcbnew,9.0.6*%
%TF.CreationDate,2025-11-13T00:04:27-05:00*%
%TF.ProjectId,mask-board,6d61736b-2d62-46f6-9172-642e6b696361,rev?*%
%TF.SameCoordinates,Original*%
%TF.FileFunction,Legend,Bot*%
%TF.FilePolarity,Positive*%
%FSLAX46Y46*%
G04 Gerber Fmt 4.6, Leading zero omitted, Abs format (unit mm)*
G04 Created by KiCad (PCBNEW 9.0.6) date 2025-11-13 00:04:27*
%MOMM*%
%LPD*%
G01*
G04 APERTURE LIST*
%ADD10C,0.010000*%
G04 APERTURE END LIST*
D10*
%TO.C,Ref\u002A\u002A*%
X171746333Y-96496749D02*
X169883667Y-96496749D01*
X169883667Y-96200415D01*
X171746333Y-96200415D01*
X171746333Y-96496749D01*
G36*
X171746333Y-96496749D02*
G01*
X169883667Y-96496749D01*
X169883667Y-96200415D01*
X171746333Y-96200415D01*
X171746333Y-96496749D01*
G37*
X171746333Y-97999582D02*
X171428833Y-97999582D01*
X171428833Y-97533915D01*
X169883667Y-97533915D01*
X169883667Y-97237582D01*
X171428833Y-97237582D01*
X171428833Y-96793082D01*
X171746333Y-96793082D01*
X171746333Y-97999582D01*
G36*
X171746333Y-97999582D02*
G01*
X171428833Y-97999582D01*
X171428833Y-97533915D01*
X169883667Y-97533915D01*
X169883667Y-97237582D01*
X171428833Y-97237582D01*
X171428833Y-96793082D01*
X171746333Y-96793082D01*
X171746333Y-97999582D01*
G37*
X166899167Y-92009415D02*
X167237833Y-92009415D01*
X167237833Y-91374415D01*
X167576500Y-91374415D01*
X167576500Y-92009415D01*
X168317333Y-92009415D01*
X168317333Y-91374415D01*
X168634833Y-91374415D01*
X168634833Y-92326915D01*
X166581667Y-92326915D01*
X166581667Y-91374415D01*
X166899167Y-91374415D01*
X166899167Y-92009415D01*
G36*
X166899167Y-92009415D02*
G01*
X167237833Y-92009415D01*
X167237833Y-91374415D01*
X167576500Y-91374415D01*
X167576500Y-92009415D01*
X168317333Y-92009415D01*
X168317333Y-91374415D01*
X168634833Y-91374415D01*
X168634833Y-92326915D01*
X166581667Y-92326915D01*
X166581667Y-91374415D01*
X166899167Y-91374415D01*
X166899167Y-92009415D01*
G37*
X170180000Y-101894249D02*
X170645667Y-101894249D01*
X170645667Y-101322749D01*
X170963167Y-101322749D01*
X170963167Y-101894249D01*
X171428833Y-101894249D01*
X171428833Y-101322749D01*
X171725167Y-101322749D01*
X171725167Y-102190582D01*
X169883667Y-102190582D01*
X169883667Y-101322749D01*
X170180000Y-101322749D01*
X170180000Y-101894249D01*
G36*
X170180000Y-101894249D02*
G01*
X170645667Y-101894249D01*
X170645667Y-101322749D01*
X170963167Y-101322749D01*
X170963167Y-101894249D01*
X171428833Y-101894249D01*
X171428833Y-101322749D01*
X171725167Y-101322749D01*
X171725167Y-102190582D01*
X169883667Y-102190582D01*
X169883667Y-101322749D01*
X170180000Y-101322749D01*
X170180000Y-101894249D01*
G37*
X171746333Y-102762082D02*
X170772667Y-102762082D01*
X170772667Y-103397082D01*
X171746333Y-103397082D01*
X171746333Y-103693415D01*
X169883667Y-103693415D01*
X169883667Y-103397082D01*
X170476333Y-103397082D01*
X170476333Y-102762082D01*
X169883667Y-102762082D01*
X169883667Y-102465749D01*
X171746333Y-102465749D01*
X171746333Y-102762082D01*
G36*
X171746333Y-102762082D02*
G01*
X170772667Y-102762082D01*
X170772667Y-103397082D01*
X171746333Y-103397082D01*
X171746333Y-103693415D01*
X169883667Y-103693415D01*
X169883667Y-103397082D01*
X170476333Y-103397082D01*
X170476333Y-102762082D01*
X169883667Y-102762082D01*
X169883667Y-102465749D01*
X171746333Y-102465749D01*
X171746333Y-102762082D01*
G37*
X168656000Y-92983082D02*
X168058042Y-92983222D01*
X167460083Y-92983363D01*
X168047458Y-93302086D01*
X168634833Y-93620808D01*
X168634833Y-93935582D01*
X166581667Y-93935582D01*
X166581667Y-93597564D01*
X167184562Y-93591948D01*
X167787458Y-93586332D01*
X166592250Y-92906942D01*
X166585948Y-92775679D01*
X166579647Y-92644415D01*
X168656000Y-92644415D01*
X168656000Y-92983082D01*
G36*
X168656000Y-92983082D02*
G01*
X168058042Y-92983222D01*
X167460083Y-92983363D01*
X168047458Y-93302086D01*
X168634833Y-93620808D01*
X168634833Y-93935582D01*
X166581667Y-93935582D01*
X166581667Y-93597564D01*
X167184562Y-93591948D01*
X167787458Y-93586332D01*
X166592250Y-92906942D01*
X166585948Y-92775679D01*
X166579647Y-92644415D01*
X168656000Y-92644415D01*
X168656000Y-92983082D01*
G37*
X166904011Y-105689646D02*
X166909750Y-106098378D01*
X168370250Y-105304540D01*
X168656000Y-105302082D01*
X168656000Y-106529749D01*
X168318357Y-106529749D01*
X168312554Y-106181522D01*
X168306750Y-105833295D01*
X167597667Y-106202366D01*
X166888583Y-106571437D01*
X166735125Y-106571759D01*
X166581667Y-106572082D01*
X166581667Y-105280915D01*
X166898272Y-105280915D01*
X166904011Y-105689646D01*
G36*
X166904011Y-105689646D02*
G01*
X166909750Y-106098378D01*
X168370250Y-105304540D01*
X168656000Y-105302082D01*
X168656000Y-106529749D01*
X168318357Y-106529749D01*
X168312554Y-106181522D01*
X168306750Y-105833295D01*
X167597667Y-106202366D01*
X166888583Y-106571437D01*
X166735125Y-106571759D01*
X166581667Y-106572082D01*
X166581667Y-105280915D01*
X166898272Y-105280915D01*
X166904011Y-105689646D01*
G37*
X168656000Y-95561887D02*
X168089792Y-95750700D01*
X167523583Y-95939512D01*
X168089792Y-96127873D01*
X168656000Y-96316233D01*
X168656000Y-96491158D01*
X168655213Y-96571220D01*
X168653116Y-96632019D01*
X168650107Y-96663697D01*
X168648946Y-96666082D01*
X168628081Y-96659314D01*
X168571685Y-96640033D01*
X168484164Y-96609770D01*
X168369924Y-96570057D01*
X168233369Y-96522426D01*
X168078905Y-96468408D01*
X167910937Y-96409535D01*
X167888037Y-96401499D01*
X167134181Y-96136915D01*
X166581667Y-96136915D01*
X166581667Y-95755915D01*
X167084547Y-95755915D01*
X167478690Y-95618332D01*
X167638337Y-95562604D01*
X167820085Y-95499160D01*
X168006474Y-95434097D01*
X168180044Y-95373508D01*
X168264417Y-95344055D01*
X168656000Y-95207361D01*
X168656000Y-95561887D01*
G36*
X168656000Y-95561887D02*
G01*
X168089792Y-95750700D01*
X167523583Y-95939512D01*
X168089792Y-96127873D01*
X168656000Y-96316233D01*
X168656000Y-96491158D01*
X168655213Y-96571220D01*
X168653116Y-96632019D01*
X168650107Y-96663697D01*
X168648946Y-96666082D01*
X168628081Y-96659314D01*
X168571685Y-96640033D01*
X168484164Y-96609770D01*
X168369924Y-96570057D01*
X168233369Y-96522426D01*
X168078905Y-96468408D01*
X167910937Y-96409535D01*
X167888037Y-96401499D01*
X167134181Y-96136915D01*
X166581667Y-96136915D01*
X166581667Y-95755915D01*
X167084547Y-95755915D01*
X167478690Y-95618332D01*
X167638337Y-95562604D01*
X167820085Y-95499160D01*
X168006474Y-95434097D01*
X168180044Y-95373508D01*
X168264417Y-95344055D01*
X168656000Y-95207361D01*
X168656000Y-95561887D01*
G37*
X168656000Y-83796749D02*
X167485119Y-83796749D01*
X167765826Y-84003124D01*
X167877600Y-84085356D01*
X168011321Y-84183823D01*
X168154886Y-84289609D01*
X168296192Y-84393794D01*
X168397840Y-84468790D01*
X168749148Y-84728082D01*
X166581667Y-84728082D01*
X166581667Y-84411262D01*
X167157838Y-84405630D01*
X167734009Y-84399999D01*
X167116094Y-83944915D01*
X166974569Y-83840273D01*
X166844418Y-83743249D01*
X166729449Y-83656742D01*
X166633472Y-83583654D01*
X166560298Y-83526885D01*
X166513734Y-83489336D01*
X166497590Y-83473957D01*
X166517978Y-83470879D01*
X166576734Y-83467998D01*
X166669894Y-83465372D01*
X166793490Y-83463059D01*
X166943559Y-83461118D01*
X167116135Y-83459608D01*
X167307252Y-83458585D01*
X167512947Y-83458109D01*
X167576500Y-83458082D01*
X168656000Y-83458082D01*
X168656000Y-83796749D01*
G36*
X168656000Y-83796749D02*
G01*
X167485119Y-83796749D01*
X167765826Y-84003124D01*
X167877600Y-84085356D01*
X168011321Y-84183823D01*
X168154886Y-84289609D01*
X168296192Y-84393794D01*
X168397840Y-84468790D01*
X168749148Y-84728082D01*
X166581667Y-84728082D01*
X166581667Y-84411262D01*
X167157838Y-84405630D01*
X167734009Y-84399999D01*
X167116094Y-83944915D01*
X166974569Y-83840273D01*
X166844418Y-83743249D01*
X166729449Y-83656742D01*
X166633472Y-83583654D01*
X166560298Y-83526885D01*
X166513734Y-83489336D01*
X166497590Y-83473957D01*
X166517978Y-83470879D01*
X166576734Y-83467998D01*
X166669894Y-83465372D01*
X166793490Y-83463059D01*
X166943559Y-83461118D01*
X167116135Y-83459608D01*
X167307252Y-83458585D01*
X167512947Y-83458109D01*
X167576500Y-83458082D01*
X168656000Y-83458082D01*
X168656000Y-83796749D01*
G37*
X168634341Y-100613665D02*
X168178981Y-100878249D01*
X167723621Y-101142832D01*
X168179227Y-101148536D01*
X168634833Y-101154241D01*
X168634833Y-101492082D01*
X166581667Y-101492082D01*
X166581667Y-101153415D01*
X167034010Y-101153415D01*
X167244118Y-101033409D01*
X167454227Y-100913402D01*
X166581667Y-100613756D01*
X166581667Y-100439085D01*
X166583440Y-100359120D01*
X166588164Y-100298449D01*
X166594941Y-100266921D01*
X166597542Y-100264590D01*
X166620784Y-100271315D01*
X166678997Y-100290271D01*
X166767173Y-100319766D01*
X166880303Y-100358109D01*
X167013379Y-100403607D01*
X167161394Y-100454569D01*
X167224793Y-100476496D01*
X167836168Y-100688228D01*
X168187876Y-100483381D01*
X168300830Y-100417443D01*
X168403861Y-100357021D01*
X168490324Y-100306032D01*
X168553571Y-100268397D01*
X168586958Y-100248034D01*
X168587208Y-100247873D01*
X168634833Y-100217213D01*
X168634341Y-100613665D01*
G36*
X168634341Y-100613665D02*
G01*
X168178981Y-100878249D01*
X167723621Y-101142832D01*
X168179227Y-101148536D01*
X168634833Y-101154241D01*
X168634833Y-101492082D01*
X166581667Y-101492082D01*
X166581667Y-101153415D01*
X167034010Y-101153415D01*
X167244118Y-101033409D01*
X167454227Y-100913402D01*
X166581667Y-100613756D01*
X166581667Y-100439085D01*
X166583440Y-100359120D01*
X166588164Y-100298449D01*
X166594941Y-100266921D01*
X166597542Y-100264590D01*
X166620784Y-100271315D01*
X166678997Y-100290271D01*
X166767173Y-100319766D01*
X166880303Y-100358109D01*
X167013379Y-100403607D01*
X167161394Y-100454569D01*
X167224793Y-100476496D01*
X167836168Y-100688228D01*
X168187876Y-100483381D01*
X168300830Y-100417443D01*
X168403861Y-100357021D01*
X168490324Y-100306032D01*
X168553571Y-100268397D01*
X168586958Y-100248034D01*
X168587208Y-100247873D01*
X168634833Y-100217213D01*
X168634341Y-100613665D01*
G37*
X171741240Y-83477513D02*
X171744710Y-83528876D01*
X171746298Y-83601770D01*
X171746333Y-83615235D01*
X171746333Y-83772388D01*
X171249987Y-83937333D01*
X171114171Y-83983043D01*
X170993410Y-84024792D01*
X170892970Y-84060669D01*
X170818118Y-84088761D01*
X170774122Y-84107156D01*
X170764626Y-84113555D01*
X170786976Y-84123155D01*
X170843845Y-84144062D01*
X170929559Y-84174291D01*
X171038443Y-84211859D01*
X171164825Y-84254781D01*
X171255680Y-84285284D01*
X171735750Y-84445736D01*
X171741979Y-84610700D01*
X171744298Y-84693087D01*
X171742443Y-84740958D01*
X171734779Y-84762056D01*
X171719671Y-84764122D01*
X171710229Y-84760990D01*
X171681643Y-84750638D01*
X171618121Y-84728062D01*
X171524682Y-84695031D01*
X171406344Y-84653314D01*
X171268125Y-84604682D01*
X171115042Y-84550905D01*
X171012572Y-84514949D01*
X170352894Y-84283582D01*
X169883667Y-84283582D01*
X169883667Y-83944915D01*
X170341363Y-83944915D01*
X171034049Y-83701499D01*
X171196366Y-83644554D01*
X171345727Y-83592340D01*
X171477507Y-83546457D01*
X171587085Y-83508507D01*
X171669837Y-83480093D01*
X171721140Y-83462816D01*
X171736534Y-83458082D01*
X171741240Y-83477513D01*
G36*
X171741240Y-83477513D02*
G01*
X171744710Y-83528876D01*
X171746298Y-83601770D01*
X171746333Y-83615235D01*
X171746333Y-83772388D01*
X171249987Y-83937333D01*
X171114171Y-83983043D01*
X170993410Y-84024792D01*
X170892970Y-84060669D01*
X170818118Y-84088761D01*
X170774122Y-84107156D01*
X170764626Y-84113555D01*
X170786976Y-84123155D01*
X170843845Y-84144062D01*
X170929559Y-84174291D01*
X171038443Y-84211859D01*
X171164825Y-84254781D01*
X171255680Y-84285284D01*
X171735750Y-84445736D01*
X171741979Y-84610700D01*
X171744298Y-84693087D01*
X171742443Y-84740958D01*
X171734779Y-84762056D01*
X171719671Y-84764122D01*
X171710229Y-84760990D01*
X171681643Y-84750638D01*
X171618121Y-84728062D01*
X171524682Y-84695031D01*
X171406344Y-84653314D01*
X171268125Y-84604682D01*
X171115042Y-84550905D01*
X171012572Y-84514949D01*
X170352894Y-84283582D01*
X169883667Y-84283582D01*
X169883667Y-83944915D01*
X170341363Y-83944915D01*
X171034049Y-83701499D01*
X171196366Y-83644554D01*
X171345727Y-83592340D01*
X171477507Y-83546457D01*
X171587085Y-83508507D01*
X171669837Y-83480093D01*
X171721140Y-83462816D01*
X171736534Y-83458082D01*
X171741240Y-83477513D01*
G37*
X171108379Y-90024063D02*
X171250584Y-90039522D01*
X171365029Y-90073101D01*
X171464262Y-90129974D01*
X171553052Y-90207467D01*
X171622503Y-90285737D01*
X171672517Y-90366352D01*
X171706483Y-90458912D01*
X171727789Y-90573019D01*
X171739824Y-90718274D01*
X171740871Y-90739659D01*
X171752562Y-90993415D01*
X169883667Y-90993415D01*
X169883667Y-90697082D01*
X170385787Y-90697082D01*
X170688000Y-90697082D01*
X171069000Y-90697082D01*
X171209814Y-90697103D01*
X171313153Y-90695736D01*
X171383869Y-90690836D01*
X171426815Y-90680258D01*
X171446842Y-90661859D01*
X171448803Y-90633492D01*
X171437548Y-90593014D01*
X171419334Y-90542222D01*
X171371829Y-90446537D01*
X171301871Y-90376038D01*
X171233885Y-90334996D01*
X171125307Y-90299836D01*
X171014389Y-90298697D01*
X170908711Y-90327503D01*
X170815854Y-90382177D01*
X170743396Y-90458643D01*
X170698919Y-90552825D01*
X170688482Y-90628290D01*
X170688000Y-90697082D01*
X170385787Y-90697082D01*
X170396962Y-90573841D01*
X170423794Y-90438138D01*
X170480949Y-90320250D01*
X170573661Y-90210244D01*
X170602910Y-90182899D01*
X170706880Y-90103227D01*
X170814351Y-90052345D01*
X170936418Y-90026766D01*
X171014389Y-90024782D01*
X171084179Y-90023005D01*
X171108379Y-90024063D01*
G36*
X171108379Y-90024063D02*
G01*
X171250584Y-90039522D01*
X171365029Y-90073101D01*
X171464262Y-90129974D01*
X171553052Y-90207467D01*
X171622503Y-90285737D01*
X171672517Y-90366352D01*
X171706483Y-90458912D01*
X171727789Y-90573019D01*
X171739824Y-90718274D01*
X171740871Y-90739659D01*
X171752562Y-90993415D01*
X169883667Y-90993415D01*
X169883667Y-90697082D01*
X170385787Y-90697082D01*
X170688000Y-90697082D01*
X171069000Y-90697082D01*
X171209814Y-90697103D01*
X171313153Y-90695736D01*
X171383869Y-90690836D01*
X171426815Y-90680258D01*
X171446842Y-90661859D01*
X171448803Y-90633492D01*
X171437548Y-90593014D01*
X171419334Y-90542222D01*
X171371829Y-90446537D01*
X171301871Y-90376038D01*
X171233885Y-90334996D01*
X171125307Y-90299836D01*
X171014389Y-90298697D01*
X170908711Y-90327503D01*
X170815854Y-90382177D01*
X170743396Y-90458643D01*
X170698919Y-90552825D01*
X170688482Y-90628290D01*
X170688000Y-90697082D01*
X170385787Y-90697082D01*
X170396962Y-90573841D01*
X170423794Y-90438138D01*
X170480949Y-90320250D01*
X170573661Y-90210244D01*
X170602910Y-90182899D01*
X170706880Y-90103227D01*
X170814351Y-90052345D01*
X170936418Y-90026766D01*
X171014389Y-90024782D01*
X171084179Y-90023005D01*
X171108379Y-90024063D01*
G37*
X171044063Y-99629752D02*
X171227734Y-99630718D01*
X171393568Y-99632243D01*
X171537370Y-99634258D01*
X171654943Y-99636694D01*
X171742091Y-99639481D01*
X171794620Y-99642550D01*
X171808920Y-99645290D01*
X171791601Y-99660397D01*
X171743081Y-99695358D01*
X171667791Y-99747171D01*
X171570161Y-99812835D01*
X171454625Y-99889347D01*
X171325612Y-99973707D01*
X171289374Y-99997225D01*
X170770742Y-100333285D01*
X170840496Y-100379799D01*
X170877324Y-100404052D01*
X170943916Y-100447597D01*
X171034520Y-100506687D01*
X171143385Y-100577574D01*
X171264762Y-100656510D01*
X171360042Y-100718412D01*
X171482449Y-100798606D01*
X171592182Y-100871843D01*
X171684490Y-100934841D01*
X171754622Y-100984320D01*
X171797826Y-101016999D01*
X171809833Y-101029046D01*
X171789339Y-101032915D01*
X171730546Y-101036495D01*
X171637488Y-101039709D01*
X171514198Y-101042478D01*
X171364711Y-101044726D01*
X171193060Y-101046374D01*
X171003278Y-101047345D01*
X170846750Y-101047582D01*
X169883667Y-101047582D01*
X169883667Y-100730907D01*
X170343332Y-100725203D01*
X170802998Y-100719499D01*
X170512666Y-100532313D01*
X170415416Y-100468763D01*
X170332154Y-100412731D01*
X170268790Y-100368327D01*
X170231235Y-100339658D01*
X170223456Y-100331230D01*
X170240745Y-100315731D01*
X170287886Y-100281649D01*
X170358968Y-100233047D01*
X170448078Y-100173990D01*
X170520773Y-100126832D01*
X170816968Y-99936332D01*
X170350317Y-99930635D01*
X169883667Y-99924939D01*
X169883667Y-99629415D01*
X170846750Y-99629415D01*
X171044063Y-99629752D01*
G36*
X171044063Y-99629752D02*
G01*
X171227734Y-99630718D01*
X171393568Y-99632243D01*
X171537370Y-99634258D01*
X171654943Y-99636694D01*
X171742091Y-99639481D01*
X171794620Y-99642550D01*
X171808920Y-99645290D01*
X171791601Y-99660397D01*
X171743081Y-99695358D01*
X171667791Y-99747171D01*
X171570161Y-99812835D01*
X171454625Y-99889347D01*
X171325612Y-99973707D01*
X171289374Y-99997225D01*
X170770742Y-100333285D01*
X170840496Y-100379799D01*
X170877324Y-100404052D01*
X170943916Y-100447597D01*
X171034520Y-100506687D01*
X171143385Y-100577574D01*
X171264762Y-100656510D01*
X171360042Y-100718412D01*
X171482449Y-100798606D01*
X171592182Y-100871843D01*
X171684490Y-100934841D01*
X171754622Y-100984320D01*
X171797826Y-101016999D01*
X171809833Y-101029046D01*
X171789339Y-101032915D01*
X171730546Y-101036495D01*
X171637488Y-101039709D01*
X171514198Y-101042478D01*
X171364711Y-101044726D01*
X171193060Y-101046374D01*
X171003278Y-101047345D01*
X170846750Y-101047582D01*
X169883667Y-101047582D01*
X169883667Y-100730907D01*
X170343332Y-100725203D01*
X170802998Y-100719499D01*
X170512666Y-100532313D01*
X170415416Y-100468763D01*
X170332154Y-100412731D01*
X170268790Y-100368327D01*
X170231235Y-100339658D01*
X170223456Y-100331230D01*
X170240745Y-100315731D01*
X170287886Y-100281649D01*
X170358968Y-100233047D01*
X170448078Y-100173990D01*
X170520773Y-100126832D01*
X170816968Y-99936332D01*
X170350317Y-99930635D01*
X169883667Y-99924939D01*
X169883667Y-99629415D01*
X170846750Y-99629415D01*
X171044063Y-99629752D01*
G37*
X170237456Y-94713457D02*
X170201672Y-94830292D01*
X170188730Y-94963414D01*
X170198587Y-95096396D01*
X170231199Y-95212812D01*
X170238839Y-95229443D01*
X170326078Y-95363594D01*
X170438230Y-95469593D01*
X170568869Y-95545079D01*
X170711571Y-95587690D01*
X170859911Y-95595064D01*
X171007466Y-95564839D01*
X171075001Y-95536834D01*
X171213351Y-95448035D01*
X171318371Y-95335387D01*
X171388902Y-95202559D01*
X171423783Y-95053221D01*
X171421856Y-94891042D01*
X171381959Y-94719690D01*
X171355344Y-94649957D01*
X171351417Y-94631666D01*
X171363728Y-94620606D01*
X171399791Y-94614999D01*
X171467123Y-94613063D01*
X171511759Y-94612915D01*
X171596953Y-94613572D01*
X171649549Y-94617484D01*
X171679279Y-94627560D01*
X171695878Y-94646709D01*
X171706479Y-94671124D01*
X171725037Y-94745417D01*
X171736975Y-94846761D01*
X171741696Y-94960306D01*
X171738605Y-95071201D01*
X171727104Y-95164593D01*
X171726431Y-95167894D01*
X171668417Y-95353001D01*
X171579027Y-95515331D01*
X171463081Y-95653080D01*
X171325400Y-95764442D01*
X171170807Y-95847613D01*
X171004121Y-95900789D01*
X170830165Y-95922165D01*
X170653758Y-95909936D01*
X170479722Y-95862297D01*
X170312879Y-95777444D01*
X170238959Y-95724700D01*
X170095942Y-95587318D01*
X169989887Y-95429397D01*
X169920730Y-95250789D01*
X169888402Y-95051350D01*
X169885854Y-94954644D01*
X169889364Y-94859402D01*
X169896720Y-94770335D01*
X169906496Y-94703529D01*
X169909124Y-94692290D01*
X169930206Y-94612915D01*
X170283453Y-94612915D01*
X170237456Y-94713457D01*
G36*
X170237456Y-94713457D02*
G01*
X170201672Y-94830292D01*
X170188730Y-94963414D01*
X170198587Y-95096396D01*
X170231199Y-95212812D01*
X170238839Y-95229443D01*
X170326078Y-95363594D01*
X170438230Y-95469593D01*
X170568869Y-95545079D01*
X170711571Y-95587690D01*
X170859911Y-95595064D01*
X171007466Y-95564839D01*
X171075001Y-95536834D01*
X171213351Y-95448035D01*
X171318371Y-95335387D01*
X171388902Y-95202559D01*
X171423783Y-95053221D01*
X171421856Y-94891042D01*
X171381959Y-94719690D01*
X171355344Y-94649957D01*
X171351417Y-94631666D01*
X171363728Y-94620606D01*
X171399791Y-94614999D01*
X171467123Y-94613063D01*
X171511759Y-94612915D01*
X171596953Y-94613572D01*
X171649549Y-94617484D01*
X171679279Y-94627560D01*
X171695878Y-94646709D01*
X171706479Y-94671124D01*
X171725037Y-94745417D01*
X171736975Y-94846761D01*
X171741696Y-94960306D01*
X171738605Y-95071201D01*
X171727104Y-95164593D01*
X171726431Y-95167894D01*
X171668417Y-95353001D01*
X171579027Y-95515331D01*
X171463081Y-95653080D01*
X171325400Y-95764442D01*
X171170807Y-95847613D01*
X171004121Y-95900789D01*
X170830165Y-95922165D01*
X170653758Y-95909936D01*
X170479722Y-95862297D01*
X170312879Y-95777444D01*
X170238959Y-95724700D01*
X170095942Y-95587318D01*
X169989887Y-95429397D01*
X169920730Y-95250789D01*
X169888402Y-95051350D01*
X169885854Y-94954644D01*
X169889364Y-94859402D01*
X169896720Y-94770335D01*
X169906496Y-94703529D01*
X169909124Y-94692290D01*
X169930206Y-94612915D01*
X170283453Y-94612915D01*
X170237456Y-94713457D01*
G37*
X167873992Y-87035400D02*
X168069636Y-87035834D01*
X168247708Y-87036522D01*
X168404290Y-87037436D01*
X168535461Y-87038544D01*
X168637305Y-87039819D01*
X168705901Y-87041231D01*
X168737332Y-87042751D01*
X168738903Y-87043253D01*
X168719634Y-87056330D01*
X168669171Y-87089626D01*
X168591834Y-87140318D01*
X168491939Y-87205582D01*
X168373807Y-87282596D01*
X168241756Y-87368536D01*
X168169167Y-87415720D01*
X168031087Y-87505593D01*
X167904271Y-87588428D01*
X167793125Y-87661324D01*
X167702057Y-87721380D01*
X167635473Y-87765693D01*
X167597780Y-87791362D01*
X167591115Y-87796326D01*
X167603875Y-87811377D01*
X167648159Y-87846341D01*
X167719835Y-87898313D01*
X167814768Y-87964390D01*
X167928825Y-88041669D01*
X168057872Y-88127245D01*
X168120282Y-88168045D01*
X168257881Y-88257645D01*
X168385489Y-88340811D01*
X168498376Y-88414458D01*
X168591815Y-88475497D01*
X168661076Y-88520841D01*
X168701431Y-88547402D01*
X168708335Y-88552018D01*
X168712442Y-88558447D01*
X168702273Y-88563859D01*
X168674812Y-88568336D01*
X168627046Y-88571961D01*
X168555958Y-88574815D01*
X168458534Y-88576981D01*
X168331759Y-88578541D01*
X168172618Y-88579576D01*
X167978095Y-88580169D01*
X167745176Y-88580403D01*
X167665877Y-88580415D01*
X166581667Y-88580415D01*
X166581667Y-88263655D01*
X167105071Y-88257993D01*
X167628475Y-88252332D01*
X167293100Y-88033611D01*
X167178333Y-87957164D01*
X167085898Y-87892327D01*
X167019428Y-87841831D01*
X166982558Y-87808409D01*
X166976858Y-87795757D01*
X167000020Y-87778531D01*
X167052711Y-87742331D01*
X167128924Y-87691190D01*
X167222654Y-87629140D01*
X167321033Y-87564686D01*
X167646074Y-87352749D01*
X166581667Y-87352749D01*
X166581667Y-87035249D01*
X167664695Y-87035249D01*
X167873992Y-87035400D01*
G36*
X167873992Y-87035400D02*
G01*
X168069636Y-87035834D01*
X168247708Y-87036522D01*
X168404290Y-87037436D01*
X168535461Y-87038544D01*
X168637305Y-87039819D01*
X168705901Y-87041231D01*
X168737332Y-87042751D01*
X168738903Y-87043253D01*
X168719634Y-87056330D01*
X168669171Y-87089626D01*
X168591834Y-87140318D01*
X168491939Y-87205582D01*
X168373807Y-87282596D01*
X168241756Y-87368536D01*
X168169167Y-87415720D01*
X168031087Y-87505593D01*
X167904271Y-87588428D01*
X167793125Y-87661324D01*
X167702057Y-87721380D01*
X167635473Y-87765693D01*
X167597780Y-87791362D01*
X167591115Y-87796326D01*
X167603875Y-87811377D01*
X167648159Y-87846341D01*
X167719835Y-87898313D01*
X167814768Y-87964390D01*
X167928825Y-88041669D01*
X168057872Y-88127245D01*
X168120282Y-88168045D01*
X168257881Y-88257645D01*
X168385489Y-88340811D01*
X168498376Y-88414458D01*
X168591815Y-88475497D01*
X168661076Y-88520841D01*
X168701431Y-88547402D01*
X168708335Y-88552018D01*
X168712442Y-88558447D01*
X168702273Y-88563859D01*
X168674812Y-88568336D01*
X168627046Y-88571961D01*
X168555958Y-88574815D01*
X168458534Y-88576981D01*
X168331759Y-88578541D01*
X168172618Y-88579576D01*
X167978095Y-88580169D01*
X167745176Y-88580403D01*
X167665877Y-88580415D01*
X166581667Y-88580415D01*
X166581667Y-88263655D01*
X167105071Y-88257993D01*
X167628475Y-88252332D01*
X167293100Y-88033611D01*
X167178333Y-87957164D01*
X167085898Y-87892327D01*
X167019428Y-87841831D01*
X166982558Y-87808409D01*
X166976858Y-87795757D01*
X167000020Y-87778531D01*
X167052711Y-87742331D01*
X167128924Y-87691190D01*
X167222654Y-87629140D01*
X167321033Y-87564686D01*
X167646074Y-87352749D01*
X166581667Y-87352749D01*
X166581667Y-87035249D01*
X167664695Y-87035249D01*
X167873992Y-87035400D01*
G37*
X166920809Y-101810267D02*
X166985416Y-101812101D01*
X167021642Y-101814753D01*
X167026167Y-101816189D01*
X167017721Y-101837322D01*
X166996182Y-101883884D01*
X166980366Y-101916731D01*
X166940030Y-102038202D01*
X166923203Y-102178706D01*
X166930466Y-102321688D01*
X166961733Y-102448850D01*
X167034453Y-102586644D01*
X167139409Y-102710393D01*
X167266620Y-102809160D01*
X167315196Y-102836122D01*
X167388683Y-102869318D01*
X167454211Y-102888180D01*
X167529752Y-102896514D01*
X167608250Y-102898154D01*
X167708856Y-102895289D01*
X167785732Y-102883917D01*
X167857183Y-102860546D01*
X167897132Y-102843020D01*
X168041660Y-102754127D01*
X168157379Y-102638108D01*
X168241933Y-102500890D01*
X168292967Y-102348397D01*
X168308127Y-102186554D01*
X168285057Y-102021285D01*
X168257417Y-101936582D01*
X168232954Y-101873715D01*
X168216301Y-101829357D01*
X168211511Y-101814874D01*
X168231084Y-101812524D01*
X168283460Y-101810710D01*
X168359110Y-101809701D01*
X168398650Y-101809582D01*
X168585799Y-101809582D01*
X168611089Y-101893990D01*
X168646695Y-102080848D01*
X168648044Y-102279235D01*
X168616135Y-102477249D01*
X168551969Y-102662987D01*
X168545255Y-102677415D01*
X168462928Y-102812893D01*
X168350755Y-102944473D01*
X168220493Y-103060434D01*
X168083901Y-103149051D01*
X168060528Y-103160729D01*
X167868845Y-103230574D01*
X167676598Y-103260974D01*
X167487807Y-103254564D01*
X167306490Y-103213985D01*
X167136664Y-103141874D01*
X166982349Y-103040870D01*
X166847563Y-102913610D01*
X166736324Y-102762732D01*
X166652651Y-102590876D01*
X166600562Y-102400678D01*
X166584076Y-102194778D01*
X166584122Y-102191426D01*
X166586553Y-102107759D01*
X166590662Y-102036459D01*
X166595603Y-101991831D01*
X166596085Y-101989499D01*
X166609130Y-101939263D01*
X166627021Y-101878374D01*
X166648450Y-101809582D01*
X166837308Y-101809582D01*
X166920809Y-101810267D01*
G36*
X166920809Y-101810267D02*
G01*
X166985416Y-101812101D01*
X167021642Y-101814753D01*
X167026167Y-101816189D01*
X167017721Y-101837322D01*
X166996182Y-101883884D01*
X166980366Y-101916731D01*
X166940030Y-102038202D01*
X166923203Y-102178706D01*
X166930466Y-102321688D01*
X166961733Y-102448850D01*
X167034453Y-102586644D01*
X167139409Y-102710393D01*
X167266620Y-102809160D01*
X167315196Y-102836122D01*
X167388683Y-102869318D01*
X167454211Y-102888180D01*
X167529752Y-102896514D01*
X167608250Y-102898154D01*
X167708856Y-102895289D01*
X167785732Y-102883917D01*
X167857183Y-102860546D01*
X167897132Y-102843020D01*
X168041660Y-102754127D01*
X168157379Y-102638108D01*
X168241933Y-102500890D01*
X168292967Y-102348397D01*
X168308127Y-102186554D01*
X168285057Y-102021285D01*
X168257417Y-101936582D01*
X168232954Y-101873715D01*
X168216301Y-101829357D01*
X168211511Y-101814874D01*
X168231084Y-101812524D01*
X168283460Y-101810710D01*
X168359110Y-101809701D01*
X168398650Y-101809582D01*
X168585799Y-101809582D01*
X168611089Y-101893990D01*
X168646695Y-102080848D01*
X168648044Y-102279235D01*
X168616135Y-102477249D01*
X168551969Y-102662987D01*
X168545255Y-102677415D01*
X168462928Y-102812893D01*
X168350755Y-102944473D01*
X168220493Y-103060434D01*
X168083901Y-103149051D01*
X168060528Y-103160729D01*
X167868845Y-103230574D01*
X167676598Y-103260974D01*
X167487807Y-103254564D01*
X167306490Y-103213985D01*
X167136664Y-103141874D01*
X166982349Y-103040870D01*
X166847563Y-102913610D01*
X166736324Y-102762732D01*
X166652651Y-102590876D01*
X166600562Y-102400678D01*
X166584076Y-102194778D01*
X166584122Y-102191426D01*
X166586553Y-102107759D01*
X166590662Y-102036459D01*
X166595603Y-101991831D01*
X166596085Y-101989499D01*
X166609130Y-101939263D01*
X166627021Y-101878374D01*
X166648450Y-101809582D01*
X166837308Y-101809582D01*
X166920809Y-101810267D01*
G37*
X170554346Y-105584623D02*
X170656215Y-105616718D01*
X170746273Y-105674902D01*
X170829831Y-105763348D01*
X170912203Y-105886232D01*
X170973096Y-105997096D01*
X171031720Y-106105749D01*
X171079800Y-106180937D01*
X171122870Y-106228359D01*
X171166465Y-106253711D01*
X171216117Y-106262692D01*
X171231399Y-106263049D01*
X171287916Y-106255226D01*
X171337010Y-106225956D01*
X171378513Y-106185043D01*
X171424099Y-106127989D01*
X171445015Y-106074875D01*
X171450000Y-106004480D01*
X171429542Y-105876737D01*
X171397172Y-105797794D01*
X171368140Y-105739723D01*
X171348914Y-105699644D01*
X171344255Y-105688374D01*
X171363638Y-105685825D01*
X171414927Y-105683949D01*
X171487697Y-105683099D01*
X171500310Y-105683082D01*
X171656454Y-105683082D01*
X171701394Y-105787547D01*
X171741884Y-105927976D01*
X171746364Y-106067979D01*
X171718341Y-106201714D01*
X171661319Y-106323334D01*
X171578805Y-106426996D01*
X171474305Y-106506854D01*
X171351324Y-106557064D01*
X171230807Y-106572082D01*
X171122791Y-106562593D01*
X171029002Y-106531344D01*
X170944216Y-106474157D01*
X170863204Y-106386855D01*
X170780743Y-106265263D01*
X170724961Y-106167830D01*
X170660607Y-106055609D01*
X170606516Y-105977210D01*
X170556980Y-105927252D01*
X170506293Y-105900350D01*
X170448748Y-105891123D01*
X170431424Y-105890962D01*
X170330170Y-105910588D01*
X170249031Y-105967030D01*
X170194890Y-106044420D01*
X170169215Y-106137427D01*
X170178711Y-106244972D01*
X170221696Y-106360767D01*
X170296484Y-106478524D01*
X170318453Y-106505755D01*
X170374263Y-106572082D01*
X169992614Y-106572082D01*
X169940031Y-106460957D01*
X169888479Y-106305529D01*
X169877382Y-106140864D01*
X169885506Y-106062398D01*
X169927347Y-105913885D01*
X170001421Y-105786788D01*
X170102739Y-105685535D01*
X170226313Y-105614552D01*
X170367154Y-105578266D01*
X170435353Y-105574439D01*
X170554346Y-105584623D01*
G36*
X170554346Y-105584623D02*
G01*
X170656215Y-105616718D01*
X170746273Y-105674902D01*
X170829831Y-105763348D01*
X170912203Y-105886232D01*
X170973096Y-105997096D01*
X171031720Y-106105749D01*
X171079800Y-106180937D01*
X171122870Y-106228359D01*
X171166465Y-106253711D01*
X171216117Y-106262692D01*
X171231399Y-106263049D01*
X171287916Y-106255226D01*
X171337010Y-106225956D01*
X171378513Y-106185043D01*
X171424099Y-106127989D01*
X171445015Y-106074875D01*
X171450000Y-106004480D01*
X171429542Y-105876737D01*
X171397172Y-105797794D01*
X171368140Y-105739723D01*
X171348914Y-105699644D01*
X171344255Y-105688374D01*
X171363638Y-105685825D01*
X171414927Y-105683949D01*
X171487697Y-105683099D01*
X171500310Y-105683082D01*
X171656454Y-105683082D01*
X171701394Y-105787547D01*
X171741884Y-105927976D01*
X171746364Y-106067979D01*
X171718341Y-106201714D01*
X171661319Y-106323334D01*
X171578805Y-106426996D01*
X171474305Y-106506854D01*
X171351324Y-106557064D01*
X171230807Y-106572082D01*
X171122791Y-106562593D01*
X171029002Y-106531344D01*
X170944216Y-106474157D01*
X170863204Y-106386855D01*
X170780743Y-106265263D01*
X170724961Y-106167830D01*
X170660607Y-106055609D01*
X170606516Y-105977210D01*
X170556980Y-105927252D01*
X170506293Y-105900350D01*
X170448748Y-105891123D01*
X170431424Y-105890962D01*
X170330170Y-105910588D01*
X170249031Y-105967030D01*
X170194890Y-106044420D01*
X170169215Y-106137427D01*
X170178711Y-106244972D01*
X170221696Y-106360767D01*
X170296484Y-106478524D01*
X170318453Y-106505755D01*
X170374263Y-106572082D01*
X169992614Y-106572082D01*
X169940031Y-106460957D01*
X169888479Y-106305529D01*
X169877382Y-106140864D01*
X169885506Y-106062398D01*
X169927347Y-105913885D01*
X170001421Y-105786788D01*
X170102739Y-105685535D01*
X170226313Y-105614552D01*
X170367154Y-105578266D01*
X170435353Y-105574439D01*
X170554346Y-105584623D01*
G37*
X168013529Y-96799325D02*
X168183008Y-96850226D01*
X168330260Y-96936429D01*
X168457195Y-97058898D01*
X168512604Y-97132512D01*
X168578439Y-97249660D01*
X168622867Y-97380296D01*
X168648013Y-97533095D01*
X168656000Y-97716731D01*
X168656000Y-97936082D01*
X166581667Y-97936082D01*
X166581667Y-97597415D01*
X166791907Y-97597415D01*
X167343667Y-97597415D01*
X168317333Y-97597415D01*
X168317333Y-97533072D01*
X168298805Y-97440976D01*
X168248538Y-97344564D01*
X168174513Y-97254168D01*
X168084710Y-97180121D01*
X168016388Y-97143405D01*
X167901654Y-97114970D01*
X167775012Y-97114693D01*
X167655643Y-97141997D01*
X167624859Y-97155121D01*
X167525762Y-97221415D01*
X167441175Y-97312383D01*
X167379092Y-97416742D01*
X167347506Y-97523207D01*
X167345277Y-97549790D01*
X167343667Y-97597415D01*
X166791907Y-97597415D01*
X166891870Y-97596950D01*
X166957339Y-97592169D01*
X166996148Y-97577994D01*
X167016127Y-97549348D01*
X167025110Y-97501153D01*
X167029787Y-97443200D01*
X167035819Y-97363069D01*
X166814035Y-97259594D01*
X166592250Y-97156120D01*
X166586138Y-96974813D01*
X166583561Y-96887453D01*
X166584361Y-96834919D01*
X166590488Y-96809727D01*
X166603888Y-96804392D01*
X166626510Y-96811432D01*
X166628471Y-96812187D01*
X166665631Y-96828492D01*
X166731554Y-96859298D01*
X166817094Y-96900268D01*
X166913103Y-96947065D01*
X166918174Y-96949559D01*
X167011367Y-96994495D01*
X167091680Y-97031518D01*
X167151086Y-97057046D01*
X167181557Y-97067499D01*
X167182757Y-97067576D01*
X167210002Y-97053080D01*
X167253467Y-97016882D01*
X167280167Y-96990891D01*
X167339050Y-96941568D01*
X167418698Y-96888748D01*
X167491833Y-96848954D01*
X167565318Y-96816090D01*
X167627507Y-96796293D01*
X167694420Y-96786332D01*
X167775012Y-96783247D01*
X167782076Y-96782976D01*
X167819917Y-96782764D01*
X168013529Y-96799325D01*
G36*
X168013529Y-96799325D02*
G01*
X168183008Y-96850226D01*
X168330260Y-96936429D01*
X168457195Y-97058898D01*
X168512604Y-97132512D01*
X168578439Y-97249660D01*
X168622867Y-97380296D01*
X168648013Y-97533095D01*
X168656000Y-97716731D01*
X168656000Y-97936082D01*
X166581667Y-97936082D01*
X166581667Y-97597415D01*
X166791907Y-97597415D01*
X167343667Y-97597415D01*
X168317333Y-97597415D01*
X168317333Y-97533072D01*
X168298805Y-97440976D01*
X168248538Y-97344564D01*
X168174513Y-97254168D01*
X168084710Y-97180121D01*
X168016388Y-97143405D01*
X167901654Y-97114970D01*
X167775012Y-97114693D01*
X167655643Y-97141997D01*
X167624859Y-97155121D01*
X167525762Y-97221415D01*
X167441175Y-97312383D01*
X167379092Y-97416742D01*
X167347506Y-97523207D01*
X167345277Y-97549790D01*
X167343667Y-97597415D01*
X166791907Y-97597415D01*
X166891870Y-97596950D01*
X166957339Y-97592169D01*
X166996148Y-97577994D01*
X167016127Y-97549348D01*
X167025110Y-97501153D01*
X167029787Y-97443200D01*
X167035819Y-97363069D01*
X166814035Y-97259594D01*
X166592250Y-97156120D01*
X166586138Y-96974813D01*
X166583561Y-96887453D01*
X166584361Y-96834919D01*
X166590488Y-96809727D01*
X166603888Y-96804392D01*
X166626510Y-96811432D01*
X166628471Y-96812187D01*
X166665631Y-96828492D01*
X166731554Y-96859298D01*
X166817094Y-96900268D01*
X166913103Y-96947065D01*
X166918174Y-96949559D01*
X167011367Y-96994495D01*
X167091680Y-97031518D01*
X167151086Y-97057046D01*
X167181557Y-97067499D01*
X167182757Y-97067576D01*
X167210002Y-97053080D01*
X167253467Y-97016882D01*
X167280167Y-96990891D01*
X167339050Y-96941568D01*
X167418698Y-96888748D01*
X167491833Y-96848954D01*
X167565318Y-96816090D01*
X167627507Y-96796293D01*
X167694420Y-96786332D01*
X167775012Y-96783247D01*
X167782076Y-96782976D01*
X167819917Y-96782764D01*
X168013529Y-96799325D01*
G37*
X166599210Y-103319787D02*
X166657269Y-103340765D01*
X166745912Y-103373647D01*
X166860694Y-103416728D01*
X166997174Y-103468305D01*
X167150909Y-103526674D01*
X167201558Y-103545971D01*
X167317457Y-103590131D01*
X167492375Y-103656973D01*
X167671220Y-103725495D01*
X167849550Y-103793993D01*
X168022923Y-103860765D01*
X168186896Y-103924105D01*
X168337027Y-103982312D01*
X168468873Y-104033679D01*
X168577991Y-104076505D01*
X168659939Y-104109084D01*
X168710275Y-104129714D01*
X168724778Y-104136450D01*
X168708650Y-104146468D01*
X168656494Y-104170102D01*
X168571851Y-104205922D01*
X168458262Y-104252499D01*
X168319268Y-104308402D01*
X168158410Y-104372201D01*
X167979230Y-104442468D01*
X167785268Y-104517772D01*
X167677028Y-104559489D01*
X167475139Y-104637108D01*
X167284816Y-104710287D01*
X167109786Y-104777592D01*
X166953775Y-104837591D01*
X166820507Y-104888850D01*
X166713709Y-104929938D01*
X166637105Y-104959420D01*
X166594423Y-104975863D01*
X166586958Y-104978751D01*
X166573453Y-104973009D01*
X166565133Y-104939349D01*
X166561156Y-104872364D01*
X166560500Y-104808800D01*
X166560500Y-104628489D01*
X166857782Y-104511855D01*
X166852109Y-104146124D01*
X167174333Y-104146124D01*
X167174333Y-104390018D01*
X167306625Y-104339771D01*
X167389332Y-104308286D01*
X167492844Y-104268781D01*
X167598446Y-104228401D01*
X167628120Y-104217038D01*
X167817324Y-104144552D01*
X167543454Y-104038296D01*
X167439493Y-103998212D01*
X167346333Y-103962756D01*
X167272792Y-103935251D01*
X167227688Y-103919019D01*
X167221958Y-103917134D01*
X167201558Y-103912007D01*
X167188017Y-103916340D01*
X167179929Y-103936892D01*
X167175890Y-103980422D01*
X167174493Y-104053688D01*
X167174333Y-104146124D01*
X166852109Y-104146124D01*
X166846250Y-103768413D01*
X166703375Y-103715659D01*
X166560500Y-103662904D01*
X166560500Y-103487660D01*
X166562246Y-103407522D01*
X166566897Y-103346636D01*
X166573573Y-103314846D01*
X166576175Y-103312415D01*
X166599210Y-103319787D01*
G36*
X166599210Y-103319787D02*
G01*
X166657269Y-103340765D01*
X166745912Y-103373647D01*
X166860694Y-103416728D01*
X166997174Y-103468305D01*
X167150909Y-103526674D01*
X167201558Y-103545971D01*
X167317457Y-103590131D01*
X167492375Y-103656973D01*
X167671220Y-103725495D01*
X167849550Y-103793993D01*
X168022923Y-103860765D01*
X168186896Y-103924105D01*
X168337027Y-103982312D01*
X168468873Y-104033679D01*
X168577991Y-104076505D01*
X168659939Y-104109084D01*
X168710275Y-104129714D01*
X168724778Y-104136450D01*
X168708650Y-104146468D01*
X168656494Y-104170102D01*
X168571851Y-104205922D01*
X168458262Y-104252499D01*
X168319268Y-104308402D01*
X168158410Y-104372201D01*
X167979230Y-104442468D01*
X167785268Y-104517772D01*
X167677028Y-104559489D01*
X167475139Y-104637108D01*
X167284816Y-104710287D01*
X167109786Y-104777592D01*
X166953775Y-104837591D01*
X166820507Y-104888850D01*
X166713709Y-104929938D01*
X166637105Y-104959420D01*
X166594423Y-104975863D01*
X166586958Y-104978751D01*
X166573453Y-104973009D01*
X166565133Y-104939349D01*
X166561156Y-104872364D01*
X166560500Y-104808800D01*
X166560500Y-104628489D01*
X166857782Y-104511855D01*
X166852109Y-104146124D01*
X167174333Y-104146124D01*
X167174333Y-104390018D01*
X167306625Y-104339771D01*
X167389332Y-104308286D01*
X167492844Y-104268781D01*
X167598446Y-104228401D01*
X167628120Y-104217038D01*
X167817324Y-104144552D01*
X167543454Y-104038296D01*
X167439493Y-103998212D01*
X167346333Y-103962756D01*
X167272792Y-103935251D01*
X167227688Y-103919019D01*
X167221958Y-103917134D01*
X167201558Y-103912007D01*
X167188017Y-103916340D01*
X167179929Y-103936892D01*
X167175890Y-103980422D01*
X167174493Y-104053688D01*
X167174333Y-104146124D01*
X166852109Y-104146124D01*
X166846250Y-103768413D01*
X166703375Y-103715659D01*
X166560500Y-103662904D01*
X166560500Y-103487660D01*
X166562246Y-103407522D01*
X166566897Y-103346636D01*
X166573573Y-103314846D01*
X166576175Y-103312415D01*
X166599210Y-103319787D01*
G37*
X170471853Y-84690627D02*
X170544057Y-84690718D01*
X170684522Y-84727753D01*
X170722726Y-84745368D01*
X170797205Y-84795188D01*
X170875504Y-84866021D01*
X170943946Y-84944010D01*
X170988570Y-85014677D01*
X171012030Y-85066166D01*
X171088140Y-85018832D01*
X171147511Y-84989873D01*
X171216505Y-84975297D01*
X171305302Y-84971499D01*
X171307548Y-84971571D01*
X171388523Y-84974189D01*
X171447382Y-84985544D01*
X171499685Y-85010493D01*
X171537956Y-85035879D01*
X171602786Y-85091691D01*
X171659753Y-85157592D01*
X171677014Y-85184046D01*
X171696684Y-85222834D01*
X171710090Y-85263315D01*
X171718421Y-85314527D01*
X171722860Y-85385504D01*
X171724595Y-85485283D01*
X171724819Y-85548290D01*
X171725167Y-85828749D01*
X169883667Y-85828749D01*
X169883667Y-85473071D01*
X169883922Y-85366212D01*
X170180000Y-85366212D01*
X170180000Y-85532415D01*
X170772667Y-85532415D01*
X171132500Y-85532415D01*
X171428833Y-85532415D01*
X171428833Y-85440446D01*
X171414622Y-85353076D01*
X171373458Y-85297560D01*
X171307548Y-85275690D01*
X171236482Y-85284149D01*
X171178778Y-85320100D01*
X171143848Y-85388970D01*
X171133933Y-85463624D01*
X171132500Y-85532415D01*
X170772667Y-85532415D01*
X170772588Y-85368374D01*
X170769264Y-85268888D01*
X170757908Y-85198721D01*
X170736267Y-85145255D01*
X170731265Y-85136690D01*
X170658633Y-85052899D01*
X170569361Y-85003382D01*
X170471853Y-84988282D01*
X170374515Y-85007744D01*
X170285751Y-85061911D01*
X170228047Y-85128087D01*
X170202275Y-85174503D01*
X170187525Y-85226405D01*
X170181060Y-85297356D01*
X170180000Y-85366212D01*
X169883922Y-85366212D01*
X169883981Y-85341352D01*
X169885546Y-85244011D01*
X169889298Y-85173093D01*
X169896174Y-85120643D01*
X169907109Y-85078709D01*
X169923040Y-85039334D01*
X169938452Y-85007455D01*
X170021282Y-84885672D01*
X170130877Y-84790561D01*
X170259616Y-84724668D01*
X170399882Y-84690538D01*
X170471853Y-84690627D01*
G36*
X170471853Y-84690627D02*
G01*
X170544057Y-84690718D01*
X170684522Y-84727753D01*
X170722726Y-84745368D01*
X170797205Y-84795188D01*
X170875504Y-84866021D01*
X170943946Y-84944010D01*
X170988570Y-85014677D01*
X171012030Y-85066166D01*
X171088140Y-85018832D01*
X171147511Y-84989873D01*
X171216505Y-84975297D01*
X171305302Y-84971499D01*
X171307548Y-84971571D01*
X171388523Y-84974189D01*
X171447382Y-84985544D01*
X171499685Y-85010493D01*
X171537956Y-85035879D01*
X171602786Y-85091691D01*
X171659753Y-85157592D01*
X171677014Y-85184046D01*
X171696684Y-85222834D01*
X171710090Y-85263315D01*
X171718421Y-85314527D01*
X171722860Y-85385504D01*
X171724595Y-85485283D01*
X171724819Y-85548290D01*
X171725167Y-85828749D01*
X169883667Y-85828749D01*
X169883667Y-85473071D01*
X169883922Y-85366212D01*
X170180000Y-85366212D01*
X170180000Y-85532415D01*
X170772667Y-85532415D01*
X171132500Y-85532415D01*
X171428833Y-85532415D01*
X171428833Y-85440446D01*
X171414622Y-85353076D01*
X171373458Y-85297560D01*
X171307548Y-85275690D01*
X171236482Y-85284149D01*
X171178778Y-85320100D01*
X171143848Y-85388970D01*
X171133933Y-85463624D01*
X171132500Y-85532415D01*
X170772667Y-85532415D01*
X170772588Y-85368374D01*
X170769264Y-85268888D01*
X170757908Y-85198721D01*
X170736267Y-85145255D01*
X170731265Y-85136690D01*
X170658633Y-85052899D01*
X170569361Y-85003382D01*
X170471853Y-84988282D01*
X170374515Y-85007744D01*
X170285751Y-85061911D01*
X170228047Y-85128087D01*
X170202275Y-85174503D01*
X170187525Y-85226405D01*
X170181060Y-85297356D01*
X170180000Y-85366212D01*
X169883922Y-85366212D01*
X169883981Y-85341352D01*
X169885546Y-85244011D01*
X169889298Y-85173093D01*
X169896174Y-85120643D01*
X169907109Y-85078709D01*
X169923040Y-85039334D01*
X169938452Y-85007455D01*
X170021282Y-84885672D01*
X170130877Y-84790561D01*
X170259616Y-84724668D01*
X170399882Y-84690538D01*
X170471853Y-84690627D01*
G37*
X170519998Y-86994786D02*
X170583526Y-87001183D01*
X170647238Y-87020892D01*
X170690932Y-87039839D01*
X170788194Y-87096612D01*
X170878386Y-87170551D01*
X170949607Y-87250680D01*
X170984369Y-87310501D01*
X171007774Y-87367006D01*
X171105474Y-87317544D01*
X171231135Y-87276023D01*
X171310823Y-87274877D01*
X171358767Y-87274186D01*
X171481251Y-87310373D01*
X171591470Y-87382922D01*
X171649857Y-87444595D01*
X171675158Y-87477475D01*
X171692987Y-87507378D01*
X171704854Y-87542463D01*
X171712272Y-87590895D01*
X171716754Y-87660833D01*
X171719812Y-87760441D01*
X171721437Y-87830886D01*
X171728290Y-88135915D01*
X169883667Y-88135915D01*
X169884056Y-87839582D01*
X170180000Y-87839582D01*
X170772667Y-87839582D01*
X171132500Y-87839582D01*
X171431153Y-87839582D01*
X171424702Y-87741170D01*
X171404910Y-87655626D01*
X171364216Y-87599991D01*
X171310823Y-87573432D01*
X171252933Y-87575116D01*
X171198750Y-87604213D01*
X171156476Y-87659888D01*
X171134313Y-87741310D01*
X171132812Y-87770790D01*
X171132500Y-87839582D01*
X170772667Y-87839582D01*
X170772667Y-87660402D01*
X170771676Y-87571355D01*
X170766619Y-87512399D01*
X170754373Y-87471303D01*
X170731812Y-87435836D01*
X170708109Y-87407694D01*
X170619470Y-87334300D01*
X170519998Y-87298572D01*
X170417042Y-87301204D01*
X170317949Y-87342888D01*
X170284456Y-87367739D01*
X170237518Y-87412524D01*
X170207419Y-87459004D01*
X170190459Y-87518222D01*
X170182939Y-87601216D01*
X170181342Y-87675540D01*
X170180000Y-87839582D01*
X169884056Y-87839582D01*
X169884132Y-87781374D01*
X169884875Y-87646212D01*
X169887202Y-87545568D01*
X169891868Y-87471635D01*
X169899629Y-87416607D01*
X169911241Y-87372676D01*
X169927458Y-87332035D01*
X169927663Y-87331582D01*
X170008566Y-87197966D01*
X170115186Y-87097963D01*
X170247375Y-87031672D01*
X170404985Y-86999190D01*
X170426348Y-86997520D01*
X170516269Y-86994411D01*
X170519998Y-86994786D01*
G36*
X170519998Y-86994786D02*
G01*
X170583526Y-87001183D01*
X170647238Y-87020892D01*
X170690932Y-87039839D01*
X170788194Y-87096612D01*
X170878386Y-87170551D01*
X170949607Y-87250680D01*
X170984369Y-87310501D01*
X171007774Y-87367006D01*
X171105474Y-87317544D01*
X171231135Y-87276023D01*
X171310823Y-87274877D01*
X171358767Y-87274186D01*
X171481251Y-87310373D01*
X171591470Y-87382922D01*
X171649857Y-87444595D01*
X171675158Y-87477475D01*
X171692987Y-87507378D01*
X171704854Y-87542463D01*
X171712272Y-87590895D01*
X171716754Y-87660833D01*
X171719812Y-87760441D01*
X171721437Y-87830886D01*
X171728290Y-88135915D01*
X169883667Y-88135915D01*
X169884056Y-87839582D01*
X170180000Y-87839582D01*
X170772667Y-87839582D01*
X171132500Y-87839582D01*
X171431153Y-87839582D01*
X171424702Y-87741170D01*
X171404910Y-87655626D01*
X171364216Y-87599991D01*
X171310823Y-87573432D01*
X171252933Y-87575116D01*
X171198750Y-87604213D01*
X171156476Y-87659888D01*
X171134313Y-87741310D01*
X171132812Y-87770790D01*
X171132500Y-87839582D01*
X170772667Y-87839582D01*
X170772667Y-87660402D01*
X170771676Y-87571355D01*
X170766619Y-87512399D01*
X170754373Y-87471303D01*
X170731812Y-87435836D01*
X170708109Y-87407694D01*
X170619470Y-87334300D01*
X170519998Y-87298572D01*
X170417042Y-87301204D01*
X170317949Y-87342888D01*
X170284456Y-87367739D01*
X170237518Y-87412524D01*
X170207419Y-87459004D01*
X170190459Y-87518222D01*
X170182939Y-87601216D01*
X170181342Y-87675540D01*
X170180000Y-87839582D01*
X169884056Y-87839582D01*
X169884132Y-87781374D01*
X169884875Y-87646212D01*
X169887202Y-87545568D01*
X169891868Y-87471635D01*
X169899629Y-87416607D01*
X169911241Y-87372676D01*
X169927458Y-87332035D01*
X169927663Y-87331582D01*
X170008566Y-87197966D01*
X170115186Y-87097963D01*
X170247375Y-87031672D01*
X170404985Y-86999190D01*
X170426348Y-86997520D01*
X170516269Y-86994411D01*
X170519998Y-86994786D01*
G37*
X171703164Y-104037374D02*
X171727166Y-104137479D01*
X171739935Y-104261226D01*
X171740643Y-104391223D01*
X171728465Y-104510076D01*
X171726202Y-104522235D01*
X171668090Y-104711068D01*
X171573503Y-104882314D01*
X171446453Y-105030763D01*
X171290947Y-105151205D01*
X171206001Y-105198211D01*
X171139831Y-105229490D01*
X171086162Y-105250112D01*
X171032991Y-105262291D01*
X170968315Y-105268241D01*
X170880130Y-105270177D01*
X170815000Y-105270332D01*
X170707292Y-105269600D01*
X170629881Y-105266000D01*
X170570737Y-105257421D01*
X170517833Y-105241755D01*
X170459137Y-105216893D01*
X170428528Y-105202568D01*
X170256446Y-105098145D01*
X170110772Y-104961820D01*
X169995645Y-104797661D01*
X169973154Y-104754845D01*
X169937493Y-104679997D01*
X169914356Y-104619992D01*
X169900746Y-104561096D01*
X169893667Y-104489576D01*
X169890121Y-104391699D01*
X169889673Y-104372265D01*
X169890127Y-104251208D01*
X169896616Y-104148159D01*
X169908374Y-104074085D01*
X169911252Y-104063832D01*
X169937824Y-103979165D01*
X170111829Y-103973017D01*
X170191625Y-103971035D01*
X170252155Y-103971123D01*
X170283549Y-103973209D01*
X170285833Y-103974333D01*
X170277184Y-103995889D01*
X170255115Y-104042615D01*
X170238750Y-104075731D01*
X170199138Y-104196443D01*
X170187800Y-104334352D01*
X170204438Y-104475418D01*
X170248753Y-104605602D01*
X170250082Y-104608328D01*
X170336637Y-104741142D01*
X170447250Y-104843775D01*
X170575613Y-104914965D01*
X170715419Y-104953452D01*
X170860360Y-104957973D01*
X171004128Y-104927268D01*
X171140416Y-104860074D01*
X171216164Y-104801547D01*
X171314100Y-104699372D01*
X171377545Y-104595112D01*
X171412903Y-104475733D01*
X171424254Y-104378001D01*
X171426437Y-104280138D01*
X171416600Y-104194073D01*
X171391592Y-104102940D01*
X171354724Y-104005624D01*
X171351133Y-103987218D01*
X171363887Y-103976142D01*
X171400570Y-103970577D01*
X171468765Y-103968705D01*
X171509165Y-103968582D01*
X171678692Y-103968582D01*
X171703164Y-104037374D01*
G36*
X171703164Y-104037374D02*
G01*
X171727166Y-104137479D01*
X171739935Y-104261226D01*
X171740643Y-104391223D01*
X171728465Y-104510076D01*
X171726202Y-104522235D01*
X171668090Y-104711068D01*
X171573503Y-104882314D01*
X171446453Y-105030763D01*
X171290947Y-105151205D01*
X171206001Y-105198211D01*
X171139831Y-105229490D01*
X171086162Y-105250112D01*
X171032991Y-105262291D01*
X170968315Y-105268241D01*
X170880130Y-105270177D01*
X170815000Y-105270332D01*
X170707292Y-105269600D01*
X170629881Y-105266000D01*
X170570737Y-105257421D01*
X170517833Y-105241755D01*
X170459137Y-105216893D01*
X170428528Y-105202568D01*
X170256446Y-105098145D01*
X170110772Y-104961820D01*
X169995645Y-104797661D01*
X169973154Y-104754845D01*
X169937493Y-104679997D01*
X169914356Y-104619992D01*
X169900746Y-104561096D01*
X169893667Y-104489576D01*
X169890121Y-104391699D01*
X169889673Y-104372265D01*
X169890127Y-104251208D01*
X169896616Y-104148159D01*
X169908374Y-104074085D01*
X169911252Y-104063832D01*
X169937824Y-103979165D01*
X170111829Y-103973017D01*
X170191625Y-103971035D01*
X170252155Y-103971123D01*
X170283549Y-103973209D01*
X170285833Y-103974333D01*
X170277184Y-103995889D01*
X170255115Y-104042615D01*
X170238750Y-104075731D01*
X170199138Y-104196443D01*
X170187800Y-104334352D01*
X170204438Y-104475418D01*
X170248753Y-104605602D01*
X170250082Y-104608328D01*
X170336637Y-104741142D01*
X170447250Y-104843775D01*
X170575613Y-104914965D01*
X170715419Y-104953452D01*
X170860360Y-104957973D01*
X171004128Y-104927268D01*
X171140416Y-104860074D01*
X171216164Y-104801547D01*
X171314100Y-104699372D01*
X171377545Y-104595112D01*
X171412903Y-104475733D01*
X171424254Y-104378001D01*
X171426437Y-104280138D01*
X171416600Y-104194073D01*
X171391592Y-104102940D01*
X171354724Y-104005624D01*
X171351133Y-103987218D01*
X171363887Y-103976142D01*
X171400570Y-103970577D01*
X171468765Y-103968705D01*
X171509165Y-103968582D01*
X171678692Y-103968582D01*
X171703164Y-104037374D01*
G37*
X169902004Y-97856808D02*
X169928770Y-97866119D01*
X169989731Y-97888618D01*
X170080180Y-97922504D01*
X170195410Y-97965979D01*
X170330714Y-98017244D01*
X170434000Y-98056493D01*
X170481385Y-98074500D01*
X170642715Y-98135947D01*
X170809998Y-98199787D01*
X170978526Y-98264220D01*
X171143593Y-98327446D01*
X171300490Y-98387668D01*
X171444512Y-98443086D01*
X171570950Y-98491900D01*
X171675097Y-98532312D01*
X171752248Y-98562523D01*
X171797693Y-98580733D01*
X171808070Y-98585331D01*
X171805724Y-98603291D01*
X171804212Y-98604926D01*
X171783110Y-98614318D01*
X171727138Y-98637062D01*
X171640951Y-98671357D01*
X171529207Y-98715397D01*
X171396561Y-98767381D01*
X171247670Y-98825503D01*
X171087191Y-98887960D01*
X170919779Y-98952950D01*
X170750091Y-99018669D01*
X170582784Y-99083312D01*
X170422514Y-99145077D01*
X170273937Y-99202161D01*
X170141710Y-99252759D01*
X170030490Y-99295068D01*
X169944931Y-99327284D01*
X169889692Y-99347605D01*
X169869551Y-99354249D01*
X169866119Y-99334807D01*
X169864964Y-99283275D01*
X169866252Y-99209844D01*
X169866901Y-99191187D01*
X169873083Y-99028125D01*
X170105917Y-98939451D01*
X170111718Y-98599538D01*
X170111813Y-98593984D01*
X170434000Y-98593984D01*
X170434328Y-98690219D01*
X170436460Y-98751280D01*
X170442120Y-98784323D01*
X170453031Y-98796506D01*
X170470918Y-98794988D01*
X170481625Y-98791766D01*
X170519904Y-98778344D01*
X170587661Y-98753299D01*
X170674919Y-98720357D01*
X170760627Y-98687523D01*
X170992003Y-98598283D01*
X170824127Y-98533543D01*
X170728570Y-98496573D01*
X170631788Y-98458933D01*
X170552930Y-98428074D01*
X170545125Y-98425001D01*
X170434000Y-98381200D01*
X170434000Y-98593984D01*
X170111813Y-98593984D01*
X170117520Y-98259626D01*
X169990010Y-98213133D01*
X169862500Y-98166641D01*
X169862500Y-98006559D01*
X169863417Y-97925434D01*
X169867590Y-97878538D01*
X169877152Y-97857785D01*
X169894238Y-97855086D01*
X169902004Y-97856808D01*
G36*
X169902004Y-97856808D02*
G01*
X169928770Y-97866119D01*
X169989731Y-97888618D01*
X170080180Y-97922504D01*
X170195410Y-97965979D01*
X170330714Y-98017244D01*
X170434000Y-98056493D01*
X170481385Y-98074500D01*
X170642715Y-98135947D01*
X170809998Y-98199787D01*
X170978526Y-98264220D01*
X171143593Y-98327446D01*
X171300490Y-98387668D01*
X171444512Y-98443086D01*
X171570950Y-98491900D01*
X171675097Y-98532312D01*
X171752248Y-98562523D01*
X171797693Y-98580733D01*
X171808070Y-98585331D01*
X171805724Y-98603291D01*
X171804212Y-98604926D01*
X171783110Y-98614318D01*
X171727138Y-98637062D01*
X171640951Y-98671357D01*
X171529207Y-98715397D01*
X171396561Y-98767381D01*
X171247670Y-98825503D01*
X171087191Y-98887960D01*
X170919779Y-98952950D01*
X170750091Y-99018669D01*
X170582784Y-99083312D01*
X170422514Y-99145077D01*
X170273937Y-99202161D01*
X170141710Y-99252759D01*
X170030490Y-99295068D01*
X169944931Y-99327284D01*
X169889692Y-99347605D01*
X169869551Y-99354249D01*
X169866119Y-99334807D01*
X169864964Y-99283275D01*
X169866252Y-99209844D01*
X169866901Y-99191187D01*
X169873083Y-99028125D01*
X170105917Y-98939451D01*
X170111718Y-98599538D01*
X170111813Y-98593984D01*
X170434000Y-98593984D01*
X170434328Y-98690219D01*
X170436460Y-98751280D01*
X170442120Y-98784323D01*
X170453031Y-98796506D01*
X170470918Y-98794988D01*
X170481625Y-98791766D01*
X170519904Y-98778344D01*
X170587661Y-98753299D01*
X170674919Y-98720357D01*
X170760627Y-98687523D01*
X170992003Y-98598283D01*
X170824127Y-98533543D01*
X170728570Y-98496573D01*
X170631788Y-98458933D01*
X170552930Y-98428074D01*
X170545125Y-98425001D01*
X170434000Y-98381200D01*
X170434000Y-98593984D01*
X170111813Y-98593984D01*
X170117520Y-98259626D01*
X169990010Y-98213133D01*
X169862500Y-98166641D01*
X169862500Y-98006559D01*
X169863417Y-97925434D01*
X169867590Y-97878538D01*
X169877152Y-97857785D01*
X169894238Y-97855086D01*
X169902004Y-97856808D01*
G37*
X166603103Y-98260963D02*
X166661512Y-98281968D01*
X166750469Y-98314888D01*
X166865523Y-98358016D01*
X167002223Y-98409642D01*
X167156116Y-98468058D01*
X167190262Y-98481069D01*
X167322752Y-98531556D01*
X167497680Y-98598428D01*
X167676449Y-98666965D01*
X167854606Y-98735460D01*
X168027702Y-98802202D01*
X168191284Y-98865485D01*
X168340901Y-98923600D01*
X168472102Y-98974838D01*
X168580437Y-99017491D01*
X168661452Y-99049852D01*
X168710699Y-99070210D01*
X168724127Y-99076593D01*
X168707442Y-99086206D01*
X168654674Y-99109555D01*
X168569286Y-99145277D01*
X168454743Y-99192004D01*
X168314510Y-99248373D01*
X168152050Y-99313016D01*
X167970827Y-99384570D01*
X167774306Y-99461667D01*
X167565951Y-99542943D01*
X167349227Y-99627032D01*
X167127596Y-99712569D01*
X166904524Y-99798188D01*
X166683474Y-99882523D01*
X166578160Y-99922505D01*
X166569833Y-99906435D01*
X166564952Y-99856009D01*
X166564104Y-99779110D01*
X166564938Y-99745316D01*
X166571083Y-99560786D01*
X166714436Y-99507854D01*
X166857789Y-99454923D01*
X166852137Y-99089494D01*
X167174333Y-99089494D01*
X167174333Y-99332739D01*
X167253708Y-99301088D01*
X167304960Y-99280939D01*
X167384549Y-99249987D01*
X167481281Y-99212571D01*
X167576500Y-99175901D01*
X167677071Y-99136680D01*
X167742691Y-99109048D01*
X167778189Y-99090115D01*
X167788396Y-99076994D01*
X167778141Y-99066794D01*
X167767000Y-99061945D01*
X167591202Y-98994237D01*
X167451702Y-98940829D01*
X167345392Y-98900558D01*
X167269163Y-98872262D01*
X167219906Y-98854777D01*
X167194511Y-98846942D01*
X167190262Y-98846249D01*
X167183989Y-98866020D01*
X167178879Y-98919762D01*
X167175480Y-98999117D01*
X167174333Y-99089494D01*
X166852137Y-99089494D01*
X166852020Y-99081939D01*
X166846250Y-98708955D01*
X166703557Y-98655893D01*
X166560864Y-98602832D01*
X166560682Y-98428207D01*
X166562744Y-98348230D01*
X166568393Y-98287518D01*
X166576556Y-98255933D01*
X166579693Y-98253582D01*
X166603103Y-98260963D01*
G36*
X166603103Y-98260963D02*
G01*
X166661512Y-98281968D01*
X166750469Y-98314888D01*
X166865523Y-98358016D01*
X167002223Y-98409642D01*
X167156116Y-98468058D01*
X167190262Y-98481069D01*
X167322752Y-98531556D01*
X167497680Y-98598428D01*
X167676449Y-98666965D01*
X167854606Y-98735460D01*
X168027702Y-98802202D01*
X168191284Y-98865485D01*
X168340901Y-98923600D01*
X168472102Y-98974838D01*
X168580437Y-99017491D01*
X168661452Y-99049852D01*
X168710699Y-99070210D01*
X168724127Y-99076593D01*
X168707442Y-99086206D01*
X168654674Y-99109555D01*
X168569286Y-99145277D01*
X168454743Y-99192004D01*
X168314510Y-99248373D01*
X168152050Y-99313016D01*
X167970827Y-99384570D01*
X167774306Y-99461667D01*
X167565951Y-99542943D01*
X167349227Y-99627032D01*
X167127596Y-99712569D01*
X166904524Y-99798188D01*
X166683474Y-99882523D01*
X166578160Y-99922505D01*
X166569833Y-99906435D01*
X166564952Y-99856009D01*
X166564104Y-99779110D01*
X166564938Y-99745316D01*
X166571083Y-99560786D01*
X166714436Y-99507854D01*
X166857789Y-99454923D01*
X166852137Y-99089494D01*
X167174333Y-99089494D01*
X167174333Y-99332739D01*
X167253708Y-99301088D01*
X167304960Y-99280939D01*
X167384549Y-99249987D01*
X167481281Y-99212571D01*
X167576500Y-99175901D01*
X167677071Y-99136680D01*
X167742691Y-99109048D01*
X167778189Y-99090115D01*
X167788396Y-99076994D01*
X167778141Y-99066794D01*
X167767000Y-99061945D01*
X167591202Y-98994237D01*
X167451702Y-98940829D01*
X167345392Y-98900558D01*
X167269163Y-98872262D01*
X167219906Y-98854777D01*
X167194511Y-98846942D01*
X167190262Y-98846249D01*
X167183989Y-98866020D01*
X167178879Y-98919762D01*
X167175480Y-98999117D01*
X167174333Y-99089494D01*
X166852137Y-99089494D01*
X166852020Y-99081939D01*
X166846250Y-98708955D01*
X166703557Y-98655893D01*
X166560864Y-98602832D01*
X166560682Y-98428207D01*
X166562744Y-98348230D01*
X166568393Y-98287518D01*
X166576556Y-98255933D01*
X166579693Y-98253582D01*
X166603103Y-98260963D01*
G37*
X171703528Y-88479874D02*
X171724805Y-88567593D01*
X171737864Y-88680383D01*
X171741985Y-88801651D01*
X171736450Y-88914804D01*
X171725403Y-88984912D01*
X171660288Y-89174829D01*
X171559794Y-89345427D01*
X171427893Y-89491735D01*
X171268555Y-89608786D01*
X171196000Y-89647271D01*
X171133071Y-89675917D01*
X171080062Y-89694740D01*
X171025074Y-89705788D01*
X170956208Y-89711108D01*
X170861565Y-89712748D01*
X170815000Y-89712832D01*
X170707292Y-89712100D01*
X170629881Y-89708500D01*
X170570737Y-89699921D01*
X170517833Y-89684255D01*
X170459137Y-89659393D01*
X170428528Y-89645068D01*
X170256446Y-89540645D01*
X170110772Y-89404320D01*
X169995645Y-89240161D01*
X169973154Y-89197345D01*
X169937493Y-89122497D01*
X169914356Y-89062492D01*
X169900746Y-89003596D01*
X169893667Y-88932076D01*
X169890121Y-88834199D01*
X169889673Y-88814765D01*
X169890127Y-88693708D01*
X169896616Y-88590659D01*
X169908374Y-88516585D01*
X169911252Y-88506332D01*
X169937824Y-88421665D01*
X170111829Y-88415517D01*
X170191625Y-88413535D01*
X170252155Y-88413623D01*
X170283549Y-88415709D01*
X170285833Y-88416833D01*
X170277184Y-88438389D01*
X170255115Y-88485115D01*
X170238750Y-88518231D01*
X170199250Y-88638581D01*
X170187815Y-88776193D01*
X170204154Y-88916893D01*
X170247979Y-89046509D01*
X170249640Y-89049926D01*
X170336495Y-89183528D01*
X170447173Y-89286731D01*
X170575454Y-89358283D01*
X170715113Y-89396931D01*
X170859928Y-89401423D01*
X171003676Y-89370507D01*
X171140134Y-89302930D01*
X171215809Y-89244366D01*
X171305954Y-89154689D01*
X171365586Y-89070011D01*
X171400287Y-88977544D01*
X171415640Y-88864502D01*
X171417887Y-88781499D01*
X171414993Y-88668986D01*
X171404857Y-88588207D01*
X171386057Y-88528966D01*
X171381209Y-88518955D01*
X171357145Y-88467829D01*
X171344657Y-88432857D01*
X171344167Y-88428996D01*
X171363648Y-88420631D01*
X171415374Y-88414352D01*
X171489268Y-88411240D01*
X171511430Y-88411082D01*
X171678692Y-88411082D01*
X171703528Y-88479874D01*
G36*
X171703528Y-88479874D02*
G01*
X171724805Y-88567593D01*
X171737864Y-88680383D01*
X171741985Y-88801651D01*
X171736450Y-88914804D01*
X171725403Y-88984912D01*
X171660288Y-89174829D01*
X171559794Y-89345427D01*
X171427893Y-89491735D01*
X171268555Y-89608786D01*
X171196000Y-89647271D01*
X171133071Y-89675917D01*
X171080062Y-89694740D01*
X171025074Y-89705788D01*
X170956208Y-89711108D01*
X170861565Y-89712748D01*
X170815000Y-89712832D01*
X170707292Y-89712100D01*
X170629881Y-89708500D01*
X170570737Y-89699921D01*
X170517833Y-89684255D01*
X170459137Y-89659393D01*
X170428528Y-89645068D01*
X170256446Y-89540645D01*
X170110772Y-89404320D01*
X169995645Y-89240161D01*
X169973154Y-89197345D01*
X169937493Y-89122497D01*
X169914356Y-89062492D01*
X169900746Y-89003596D01*
X169893667Y-88932076D01*
X169890121Y-88834199D01*
X169889673Y-88814765D01*
X169890127Y-88693708D01*
X169896616Y-88590659D01*
X169908374Y-88516585D01*
X169911252Y-88506332D01*
X169937824Y-88421665D01*
X170111829Y-88415517D01*
X170191625Y-88413535D01*
X170252155Y-88413623D01*
X170283549Y-88415709D01*
X170285833Y-88416833D01*
X170277184Y-88438389D01*
X170255115Y-88485115D01*
X170238750Y-88518231D01*
X170199250Y-88638581D01*
X170187815Y-88776193D01*
X170204154Y-88916893D01*
X170247979Y-89046509D01*
X170249640Y-89049926D01*
X170336495Y-89183528D01*
X170447173Y-89286731D01*
X170575454Y-89358283D01*
X170715113Y-89396931D01*
X170859928Y-89401423D01*
X171003676Y-89370507D01*
X171140134Y-89302930D01*
X171215809Y-89244366D01*
X171305954Y-89154689D01*
X171365586Y-89070011D01*
X171400287Y-88977544D01*
X171415640Y-88864502D01*
X171417887Y-88781499D01*
X171414993Y-88668986D01*
X171404857Y-88588207D01*
X171386057Y-88528966D01*
X171381209Y-88518955D01*
X171357145Y-88467829D01*
X171344657Y-88432857D01*
X171344167Y-88428996D01*
X171363648Y-88420631D01*
X171415374Y-88414352D01*
X171489268Y-88411240D01*
X171511430Y-88411082D01*
X171678692Y-88411082D01*
X171703528Y-88479874D01*
G37*
X166591618Y-85052935D02*
X166648171Y-85073862D01*
X166735371Y-85106666D01*
X166848800Y-85149652D01*
X166984041Y-85201122D01*
X167136675Y-85259378D01*
X167183296Y-85277211D01*
X167302284Y-85322726D01*
X167476451Y-85389467D01*
X167654757Y-85457905D01*
X167832785Y-85526344D01*
X168006116Y-85593086D01*
X168170334Y-85656434D01*
X168321019Y-85714693D01*
X168453754Y-85766165D01*
X168564121Y-85809153D01*
X168647702Y-85841961D01*
X168700079Y-85862892D01*
X168716525Y-85869933D01*
X168734684Y-85885564D01*
X168716525Y-85897159D01*
X168621634Y-85934013D01*
X168501417Y-85980484D01*
X168360182Y-86034925D01*
X168202239Y-86095687D01*
X168031895Y-86161120D01*
X167853460Y-86229577D01*
X167671243Y-86299409D01*
X167489551Y-86368966D01*
X167312695Y-86436601D01*
X167144982Y-86500665D01*
X166990721Y-86559509D01*
X166854222Y-86611485D01*
X166739792Y-86654943D01*
X166651741Y-86688236D01*
X166594377Y-86709715D01*
X166572009Y-86717731D01*
X166571889Y-86717749D01*
X166566711Y-86698215D01*
X166562764Y-86646136D01*
X166560676Y-86571296D01*
X166560500Y-86540235D01*
X166560500Y-86362721D01*
X166703375Y-86309909D01*
X166846250Y-86257096D01*
X166846250Y-85883930D01*
X167174333Y-85883930D01*
X167174823Y-85988903D01*
X167176996Y-86058143D01*
X167181910Y-86098248D01*
X167190623Y-86115813D01*
X167204191Y-86117436D01*
X167211375Y-86115035D01*
X167243933Y-86102445D01*
X167307728Y-86077952D01*
X167394444Y-86044741D01*
X167495767Y-86006000D01*
X167529257Y-85993208D01*
X167628982Y-85954555D01*
X167712226Y-85921202D01*
X167772147Y-85895976D01*
X167801906Y-85881705D01*
X167803871Y-85879731D01*
X167783011Y-85870266D01*
X167730905Y-85848960D01*
X167655867Y-85819048D01*
X167566208Y-85783765D01*
X167470243Y-85746346D01*
X167376283Y-85710025D01*
X167292641Y-85678037D01*
X167227630Y-85653616D01*
X167189564Y-85639998D01*
X167183296Y-85638249D01*
X167179782Y-85658028D01*
X167176915Y-85711822D01*
X167174998Y-85791314D01*
X167174333Y-85883930D01*
X166846250Y-85883930D01*
X166846250Y-85506234D01*
X166703375Y-85453422D01*
X166560500Y-85400609D01*
X166560500Y-85223096D01*
X166561560Y-85142385D01*
X166564385Y-85080865D01*
X166568445Y-85048321D01*
X166570130Y-85045582D01*
X166591618Y-85052935D01*
G36*
X166591618Y-85052935D02*
G01*
X166648171Y-85073862D01*
X166735371Y-85106666D01*
X166848800Y-85149652D01*
X166984041Y-85201122D01*
X167136675Y-85259378D01*
X167183296Y-85277211D01*
X167302284Y-85322726D01*
X167476451Y-85389467D01*
X167654757Y-85457905D01*
X167832785Y-85526344D01*
X168006116Y-85593086D01*
X168170334Y-85656434D01*
X168321019Y-85714693D01*
X168453754Y-85766165D01*
X168564121Y-85809153D01*
X168647702Y-85841961D01*
X168700079Y-85862892D01*
X168716525Y-85869933D01*
X168734684Y-85885564D01*
X168716525Y-85897159D01*
X168621634Y-85934013D01*
X168501417Y-85980484D01*
X168360182Y-86034925D01*
X168202239Y-86095687D01*
X168031895Y-86161120D01*
X167853460Y-86229577D01*
X167671243Y-86299409D01*
X167489551Y-86368966D01*
X167312695Y-86436601D01*
X167144982Y-86500665D01*
X166990721Y-86559509D01*
X166854222Y-86611485D01*
X166739792Y-86654943D01*
X166651741Y-86688236D01*
X166594377Y-86709715D01*
X166572009Y-86717731D01*
X166571889Y-86717749D01*
X166566711Y-86698215D01*
X166562764Y-86646136D01*
X166560676Y-86571296D01*
X166560500Y-86540235D01*
X166560500Y-86362721D01*
X166703375Y-86309909D01*
X166846250Y-86257096D01*
X166846250Y-85883930D01*
X167174333Y-85883930D01*
X167174823Y-85988903D01*
X167176996Y-86058143D01*
X167181910Y-86098248D01*
X167190623Y-86115813D01*
X167204191Y-86117436D01*
X167211375Y-86115035D01*
X167243933Y-86102445D01*
X167307728Y-86077952D01*
X167394444Y-86044741D01*
X167495767Y-86006000D01*
X167529257Y-85993208D01*
X167628982Y-85954555D01*
X167712226Y-85921202D01*
X167772147Y-85895976D01*
X167801906Y-85881705D01*
X167803871Y-85879731D01*
X167783011Y-85870266D01*
X167730905Y-85848960D01*
X167655867Y-85819048D01*
X167566208Y-85783765D01*
X167470243Y-85746346D01*
X167376283Y-85710025D01*
X167292641Y-85678037D01*
X167227630Y-85653616D01*
X167189564Y-85639998D01*
X167183296Y-85638249D01*
X167179782Y-85658028D01*
X167176915Y-85711822D01*
X167174998Y-85791314D01*
X167174333Y-85883930D01*
X166846250Y-85883930D01*
X166846250Y-85506234D01*
X166703375Y-85453422D01*
X166560500Y-85400609D01*
X166560500Y-85223096D01*
X166561560Y-85142385D01*
X166564385Y-85080865D01*
X166568445Y-85048321D01*
X166570130Y-85045582D01*
X166591618Y-85052935D01*
G37*
X169910125Y-92149409D02*
X169937895Y-92167658D01*
X169991431Y-92204361D01*
X170061973Y-92253479D01*
X170112651Y-92289097D01*
X170280675Y-92407617D01*
X170288718Y-92413291D01*
X170398401Y-92361715D01*
X170529397Y-92302126D01*
X170625859Y-92262745D01*
X170686878Y-92243934D01*
X170701168Y-92242249D01*
X170717983Y-92254180D01*
X170727229Y-92294363D01*
X170730310Y-92369384D01*
X170730333Y-92379031D01*
X170730333Y-92515813D01*
X170642004Y-92554331D01*
X170553675Y-92592848D01*
X170664836Y-92672709D01*
X170775997Y-92752571D01*
X170867161Y-92668538D01*
X170964839Y-92587779D01*
X171053302Y-92537916D01*
X171144850Y-92513384D01*
X171162177Y-92512226D01*
X171221379Y-92508269D01*
X171327950Y-92519395D01*
X171411644Y-92558398D01*
X171484030Y-92631497D01*
X171505135Y-92660806D01*
X171548652Y-92757787D01*
X171565572Y-92871802D01*
X171556131Y-92988068D01*
X171520564Y-93091802D01*
X171497722Y-93128302D01*
X171421403Y-93208559D01*
X171332409Y-93255222D01*
X171222743Y-93274566D01*
X171151783Y-93276477D01*
X171092962Y-93268007D01*
X171029346Y-93245084D01*
X170958581Y-93211057D01*
X170816413Y-93139070D01*
X170704581Y-93253256D01*
X170606967Y-93344135D01*
X170519351Y-93403422D01*
X170430965Y-93436413D01*
X170331039Y-93448403D01*
X170307000Y-93448749D01*
X170167668Y-93430569D01*
X170050595Y-93379166D01*
X169959232Y-93299244D01*
X169897034Y-93195506D01*
X169867453Y-93072656D01*
X169871172Y-92993986D01*
X170137667Y-92993986D01*
X170150502Y-93043964D01*
X170179665Y-93094265D01*
X170244926Y-93149390D01*
X170321106Y-93164334D01*
X170406460Y-93139311D01*
X170499243Y-93074538D01*
X170523565Y-93051993D01*
X170602547Y-92975258D01*
X170505168Y-92910450D01*
X171005500Y-92910450D01*
X171022524Y-92924053D01*
X171065629Y-92949006D01*
X171091792Y-92962744D01*
X171176628Y-92995190D01*
X171240440Y-92993325D01*
X171287760Y-92956588D01*
X171300424Y-92936903D01*
X171320071Y-92893554D01*
X171313972Y-92862982D01*
X171292559Y-92836362D01*
X171233493Y-92799362D01*
X171162177Y-92798916D01*
X171086987Y-92834608D01*
X171070624Y-92847380D01*
X171029673Y-92883691D01*
X171007060Y-92907339D01*
X171005500Y-92910450D01*
X170505168Y-92910450D01*
X170449482Y-92873390D01*
X170378784Y-92827466D01*
X170321403Y-92792284D01*
X170286378Y-92773302D01*
X170280675Y-92771469D01*
X170255884Y-92788445D01*
X170221142Y-92831063D01*
X170184571Y-92886686D01*
X170154292Y-92942674D01*
X170138429Y-92986391D01*
X170137667Y-92993986D01*
X169871172Y-92993986D01*
X169873941Y-92935399D01*
X169887486Y-92877249D01*
X169912371Y-92817085D01*
X169952711Y-92744723D01*
X169979434Y-92704514D01*
X170050213Y-92605863D01*
X169966940Y-92550755D01*
X169883667Y-92495648D01*
X169883667Y-92314782D01*
X169885109Y-92224674D01*
X169890031Y-92171237D01*
X169899326Y-92148888D01*
X169910125Y-92149409D01*
G36*
X169910125Y-92149409D02*
G01*
X169937895Y-92167658D01*
X169991431Y-92204361D01*
X170061973Y-92253479D01*
X170112651Y-92289097D01*
X170280675Y-92407617D01*
X170288718Y-92413291D01*
X170398401Y-92361715D01*
X170529397Y-92302126D01*
X170625859Y-92262745D01*
X170686878Y-92243934D01*
X170701168Y-92242249D01*
X170717983Y-92254180D01*
X170727229Y-92294363D01*
X170730310Y-92369384D01*
X170730333Y-92379031D01*
X170730333Y-92515813D01*
X170642004Y-92554331D01*
X170553675Y-92592848D01*
X170664836Y-92672709D01*
X170775997Y-92752571D01*
X170867161Y-92668538D01*
X170964839Y-92587779D01*
X171053302Y-92537916D01*
X171144850Y-92513384D01*
X171162177Y-92512226D01*
X171221379Y-92508269D01*
X171327950Y-92519395D01*
X171411644Y-92558398D01*
X171484030Y-92631497D01*
X171505135Y-92660806D01*
X171548652Y-92757787D01*
X171565572Y-92871802D01*
X171556131Y-92988068D01*
X171520564Y-93091802D01*
X171497722Y-93128302D01*
X171421403Y-93208559D01*
X171332409Y-93255222D01*
X171222743Y-93274566D01*
X171151783Y-93276477D01*
X171092962Y-93268007D01*
X171029346Y-93245084D01*
X170958581Y-93211057D01*
X170816413Y-93139070D01*
X170704581Y-93253256D01*
X170606967Y-93344135D01*
X170519351Y-93403422D01*
X170430965Y-93436413D01*
X170331039Y-93448403D01*
X170307000Y-93448749D01*
X170167668Y-93430569D01*
X170050595Y-93379166D01*
X169959232Y-93299244D01*
X169897034Y-93195506D01*
X169867453Y-93072656D01*
X169871172Y-92993986D01*
X170137667Y-92993986D01*
X170150502Y-93043964D01*
X170179665Y-93094265D01*
X170244926Y-93149390D01*
X170321106Y-93164334D01*
X170406460Y-93139311D01*
X170499243Y-93074538D01*
X170523565Y-93051993D01*
X170602547Y-92975258D01*
X170505168Y-92910450D01*
X171005500Y-92910450D01*
X171022524Y-92924053D01*
X171065629Y-92949006D01*
X171091792Y-92962744D01*
X171176628Y-92995190D01*
X171240440Y-92993325D01*
X171287760Y-92956588D01*
X171300424Y-92936903D01*
X171320071Y-92893554D01*
X171313972Y-92862982D01*
X171292559Y-92836362D01*
X171233493Y-92799362D01*
X171162177Y-92798916D01*
X171086987Y-92834608D01*
X171070624Y-92847380D01*
X171029673Y-92883691D01*
X171007060Y-92907339D01*
X171005500Y-92910450D01*
X170505168Y-92910450D01*
X170449482Y-92873390D01*
X170378784Y-92827466D01*
X170321403Y-92792284D01*
X170286378Y-92773302D01*
X170280675Y-92771469D01*
X170255884Y-92788445D01*
X170221142Y-92831063D01*
X170184571Y-92886686D01*
X170154292Y-92942674D01*
X170138429Y-92986391D01*
X170137667Y-92993986D01*
X169871172Y-92993986D01*
X169873941Y-92935399D01*
X169887486Y-92877249D01*
X169912371Y-92817085D01*
X169952711Y-92744723D01*
X169979434Y-92704514D01*
X170050213Y-92605863D01*
X169966940Y-92550755D01*
X169883667Y-92495648D01*
X169883667Y-92314782D01*
X169885109Y-92224674D01*
X169890031Y-92171237D01*
X169899326Y-92148888D01*
X169910125Y-92149409D01*
G37*
X168645715Y-88911084D02*
X168652931Y-88937690D01*
X168655550Y-88991852D01*
X168655860Y-89071114D01*
X168655719Y-89247165D01*
X168117568Y-89416499D01*
X167975678Y-89461782D01*
X167848871Y-89503480D01*
X167742212Y-89539824D01*
X167660770Y-89569048D01*
X167609609Y-89589386D01*
X167593795Y-89599072D01*
X167593833Y-89599110D01*
X167617073Y-89608760D01*
X167675349Y-89629278D01*
X167763297Y-89658883D01*
X167875553Y-89695793D01*
X168006755Y-89738227D01*
X168151538Y-89784405D01*
X168158583Y-89786636D01*
X168303491Y-89832710D01*
X168434752Y-89874815D01*
X168547077Y-89911223D01*
X168635177Y-89940209D01*
X168693762Y-89960046D01*
X168717543Y-89969007D01*
X168717736Y-89969150D01*
X168720981Y-89975076D01*
X168715568Y-89982251D01*
X168697337Y-89992170D01*
X168662127Y-90006327D01*
X168605778Y-90026214D01*
X168524131Y-90053325D01*
X168413024Y-90089155D01*
X168268299Y-90135196D01*
X168157983Y-90170119D01*
X168012705Y-90216358D01*
X167880700Y-90258932D01*
X167767346Y-90296060D01*
X167678026Y-90325963D01*
X167618119Y-90346859D01*
X167593006Y-90356969D01*
X167592792Y-90357132D01*
X167607907Y-90366724D01*
X167658392Y-90387069D01*
X167739182Y-90416381D01*
X167845211Y-90452876D01*
X167971414Y-90494769D01*
X168111375Y-90539846D01*
X168645417Y-90709410D01*
X168651565Y-90883163D01*
X168652508Y-90962834D01*
X168649652Y-91023207D01*
X168643597Y-91054433D01*
X168640981Y-91056663D01*
X168617145Y-91050325D01*
X168557804Y-91032426D01*
X168467522Y-91004432D01*
X168350861Y-90967808D01*
X168212384Y-90924019D01*
X168056653Y-90874530D01*
X167888232Y-90820807D01*
X167711684Y-90764316D01*
X167531570Y-90706521D01*
X167352455Y-90648889D01*
X167178901Y-90592883D01*
X167015470Y-90539971D01*
X166866726Y-90491616D01*
X166737231Y-90449286D01*
X166631548Y-90414444D01*
X166554240Y-90388556D01*
X166509870Y-90373088D01*
X166500893Y-90369363D01*
X166498634Y-90351548D01*
X166498764Y-90351443D01*
X166520438Y-90343471D01*
X166577289Y-90324410D01*
X166664136Y-90295944D01*
X166775797Y-90259759D01*
X166907091Y-90217542D01*
X167052836Y-90170978D01*
X167079083Y-90162622D01*
X167246882Y-90108912D01*
X167377826Y-90066123D01*
X167475557Y-90032837D01*
X167543716Y-90007638D01*
X167585945Y-89989108D01*
X167605884Y-89975831D01*
X167607175Y-89966389D01*
X167597667Y-89960809D01*
X167563568Y-89949138D01*
X167495140Y-89926682D01*
X167398425Y-89895388D01*
X167279467Y-89857205D01*
X167144310Y-89814081D01*
X167020875Y-89774891D01*
X166880099Y-89729674D01*
X166753627Y-89687859D01*
X166646778Y-89651302D01*
X166564870Y-89621859D01*
X166513221Y-89601385D01*
X166497000Y-89592093D01*
X166507572Y-89575285D01*
X166508323Y-89575249D01*
X166530104Y-89569002D01*
X166588357Y-89551074D01*
X166679230Y-89522677D01*
X166798875Y-89485029D01*
X166943440Y-89439342D01*
X167109077Y-89386833D01*
X167291936Y-89328716D01*
X167488165Y-89266207D01*
X167540198Y-89249609D01*
X167740728Y-89185637D01*
X167930070Y-89125263D01*
X168104190Y-89069770D01*
X168259053Y-89020443D01*
X168390624Y-88978566D01*
X168494870Y-88945423D01*
X168567756Y-88922300D01*
X168605248Y-88910480D01*
X168608375Y-88909516D01*
X168631622Y-88904278D01*
X168645715Y-88911084D01*
G36*
X168645715Y-88911084D02*
G01*
X168652931Y-88937690D01*
X168655550Y-88991852D01*
X168655860Y-89071114D01*
X168655719Y-89247165D01*
X168117568Y-89416499D01*
X167975678Y-89461782D01*
X167848871Y-89503480D01*
X167742212Y-89539824D01*
X167660770Y-89569048D01*
X167609609Y-89589386D01*
X167593795Y-89599072D01*
X167593833Y-89599110D01*
X167617073Y-89608760D01*
X167675349Y-89629278D01*
X167763297Y-89658883D01*
X167875553Y-89695793D01*
X168006755Y-89738227D01*
X168151538Y-89784405D01*
X168158583Y-89786636D01*
X168303491Y-89832710D01*
X168434752Y-89874815D01*
X168547077Y-89911223D01*
X168635177Y-89940209D01*
X168693762Y-89960046D01*
X168717543Y-89969007D01*
X168717736Y-89969150D01*
X168720981Y-89975076D01*
X168715568Y-89982251D01*
X168697337Y-89992170D01*
X168662127Y-90006327D01*
X168605778Y-90026214D01*
X168524131Y-90053325D01*
X168413024Y-90089155D01*
X168268299Y-90135196D01*
X168157983Y-90170119D01*
X168012705Y-90216358D01*
X167880700Y-90258932D01*
X167767346Y-90296060D01*
X167678026Y-90325963D01*
X167618119Y-90346859D01*
X167593006Y-90356969D01*
X167592792Y-90357132D01*
X167607907Y-90366724D01*
X167658392Y-90387069D01*
X167739182Y-90416381D01*
X167845211Y-90452876D01*
X167971414Y-90494769D01*
X168111375Y-90539846D01*
X168645417Y-90709410D01*
X168651565Y-90883163D01*
X168652508Y-90962834D01*
X168649652Y-91023207D01*
X168643597Y-91054433D01*
X168640981Y-91056663D01*
X168617145Y-91050325D01*
X168557804Y-91032426D01*
X168467522Y-91004432D01*
X168350861Y-90967808D01*
X168212384Y-90924019D01*
X168056653Y-90874530D01*
X167888232Y-90820807D01*
X167711684Y-90764316D01*
X167531570Y-90706521D01*
X167352455Y-90648889D01*
X167178901Y-90592883D01*
X167015470Y-90539971D01*
X166866726Y-90491616D01*
X166737231Y-90449286D01*
X166631548Y-90414444D01*
X166554240Y-90388556D01*
X166509870Y-90373088D01*
X166500893Y-90369363D01*
X166498634Y-90351548D01*
X166498764Y-90351443D01*
X166520438Y-90343471D01*
X166577289Y-90324410D01*
X166664136Y-90295944D01*
X166775797Y-90259759D01*
X166907091Y-90217542D01*
X167052836Y-90170978D01*
X167079083Y-90162622D01*
X167246882Y-90108912D01*
X167377826Y-90066123D01*
X167475557Y-90032837D01*
X167543716Y-90007638D01*
X167585945Y-89989108D01*
X167605884Y-89975831D01*
X167607175Y-89966389D01*
X167597667Y-89960809D01*
X167563568Y-89949138D01*
X167495140Y-89926682D01*
X167398425Y-89895388D01*
X167279467Y-89857205D01*
X167144310Y-89814081D01*
X167020875Y-89774891D01*
X166880099Y-89729674D01*
X166753627Y-89687859D01*
X166646778Y-89651302D01*
X166564870Y-89621859D01*
X166513221Y-89601385D01*
X166497000Y-89592093D01*
X166507572Y-89575285D01*
X166508323Y-89575249D01*
X166530104Y-89569002D01*
X166588357Y-89551074D01*
X166679230Y-89522677D01*
X166798875Y-89485029D01*
X166943440Y-89439342D01*
X167109077Y-89386833D01*
X167291936Y-89328716D01*
X167488165Y-89266207D01*
X167540198Y-89249609D01*
X167740728Y-89185637D01*
X167930070Y-89125263D01*
X168104190Y-89069770D01*
X168259053Y-89020443D01*
X168390624Y-88978566D01*
X168494870Y-88945423D01*
X168567756Y-88922300D01*
X168605248Y-88910480D01*
X168608375Y-88909516D01*
X168631622Y-88904278D01*
X168645715Y-88911084D01*
G37*
X171444557Y-77591170D02*
X171457537Y-77630836D01*
X171461884Y-77665827D01*
X171468998Y-77738592D01*
X171478621Y-77845783D01*
X171490495Y-77984052D01*
X171504364Y-78150050D01*
X171519969Y-78340431D01*
X171537054Y-78551845D01*
X171555360Y-78780944D01*
X171574630Y-79024381D01*
X171594607Y-79278807D01*
X171615033Y-79540875D01*
X171635650Y-79807235D01*
X171656201Y-80074541D01*
X171676429Y-80339444D01*
X171696076Y-80598596D01*
X171714885Y-80848649D01*
X171732597Y-81086255D01*
X171748956Y-81308065D01*
X171763704Y-81510733D01*
X171776583Y-81690908D01*
X171787336Y-81845245D01*
X171795706Y-81970394D01*
X171801435Y-82063007D01*
X171804265Y-82119736D01*
X171804144Y-82137327D01*
X171780423Y-82138244D01*
X171719991Y-82134127D01*
X171628101Y-82125517D01*
X171510007Y-82112957D01*
X171370962Y-82096988D01*
X171216220Y-82078151D01*
X171154286Y-82070340D01*
X170996587Y-82049738D01*
X170854170Y-82030121D01*
X170731979Y-82012253D01*
X170634956Y-81996895D01*
X170568046Y-81984808D01*
X170536192Y-81976756D01*
X170534410Y-81974799D01*
X170559573Y-81966023D01*
X170619103Y-81950954D01*
X170705790Y-81931250D01*
X170812420Y-81908567D01*
X170899667Y-81890889D01*
X171016634Y-81866952D01*
X171119205Y-81844605D01*
X171200097Y-81825541D01*
X171252027Y-81811458D01*
X171267488Y-81805274D01*
X171266848Y-81782431D01*
X171258841Y-81723270D01*
X171244446Y-81632975D01*
X171224646Y-81516730D01*
X171200423Y-81379720D01*
X171172757Y-81227128D01*
X171142630Y-81064139D01*
X171111024Y-80895935D01*
X171078920Y-80727702D01*
X171047299Y-80564624D01*
X171017143Y-80411883D01*
X170989433Y-80274665D01*
X170965151Y-80158154D01*
X170945278Y-80067532D01*
X170930795Y-80007985D01*
X170922842Y-79984834D01*
X170903290Y-79993662D01*
X170849658Y-80022652D01*
X170764312Y-80070435D01*
X170649620Y-80135640D01*
X170507951Y-80216899D01*
X170341671Y-80312841D01*
X170153148Y-80422097D01*
X169944751Y-80543297D01*
X169718846Y-80675073D01*
X169477802Y-80816054D01*
X169223987Y-80964871D01*
X168959767Y-81120154D01*
X168941750Y-81130756D01*
X168677133Y-81286230D01*
X168422869Y-81435136D01*
X168181315Y-81576122D01*
X167954825Y-81707834D01*
X167745755Y-81828919D01*
X167556460Y-81938024D01*
X167389295Y-82033794D01*
X167246614Y-82114877D01*
X167130774Y-82179920D01*
X167044130Y-82227569D01*
X166989036Y-82256471D01*
X166967848Y-82265272D01*
X166967692Y-82265087D01*
X166968254Y-82240123D01*
X166971835Y-82176755D01*
X166978166Y-82078786D01*
X166986980Y-81950017D01*
X166998006Y-81794251D01*
X167010977Y-81615289D01*
X167025625Y-81416934D01*
X167041680Y-81202987D01*
X167056093Y-81013538D01*
X167073087Y-80790062D01*
X167088883Y-80579491D01*
X167103215Y-80385555D01*
X167115818Y-80211982D01*
X167126427Y-80062503D01*
X167134777Y-79940847D01*
X167140602Y-79850745D01*
X167143638Y-79795924D01*
X167143819Y-79779846D01*
X167123039Y-79784982D01*
X167070948Y-79803543D01*
X166995294Y-79832633D01*
X166903828Y-79869357D01*
X166899328Y-79871198D01*
X166806403Y-79907401D01*
X166727717Y-79934566D01*
X166671373Y-79950140D01*
X166645472Y-79951570D01*
X166645194Y-79951307D01*
X166629340Y-79922303D01*
X166604505Y-79864843D01*
X166575045Y-79790530D01*
X166545320Y-79710970D01*
X166519687Y-79637766D01*
X166502504Y-79582521D01*
X166497896Y-79559410D01*
X166729833Y-79559410D01*
X166736604Y-79585424D01*
X166753811Y-79636669D01*
X166765339Y-79668541D01*
X166786658Y-79725436D01*
X166801096Y-79762622D01*
X166804263Y-79769909D01*
X166823864Y-79764368D01*
X166874656Y-79745272D01*
X166948879Y-79715642D01*
X167036409Y-79679490D01*
X167126866Y-79642931D01*
X167202520Y-79614875D01*
X167255276Y-79598154D01*
X167276894Y-79595421D01*
X167278833Y-79619063D01*
X167277673Y-79678643D01*
X167273712Y-79767900D01*
X167267247Y-79880575D01*
X167258577Y-80010407D01*
X167254476Y-80066839D01*
X167244646Y-80201190D01*
X167236240Y-80320272D01*
X167229661Y-80417989D01*
X167225316Y-80488244D01*
X167223608Y-80524940D01*
X167223775Y-80528877D01*
X167242174Y-80519536D01*
X167290581Y-80492216D01*
X167362622Y-80450584D01*
X167451922Y-80398309D01*
X167501907Y-80368822D01*
X167776565Y-80206387D01*
X167770192Y-80112443D01*
X167765864Y-80056925D01*
X167758428Y-79970012D01*
X167748830Y-79862447D01*
X167738015Y-79744973D01*
X167734928Y-79712078D01*
X167724980Y-79603656D01*
X167717072Y-79511762D01*
X167711807Y-79443865D01*
X167709785Y-79407438D01*
X167710059Y-79403312D01*
X167730062Y-79395090D01*
X167782301Y-79374084D01*
X167859672Y-79343142D01*
X167955067Y-79305108D01*
X167994766Y-79289308D01*
X168096054Y-79248121D01*
X168182670Y-79211211D01*
X168247237Y-79181852D01*
X168282376Y-79163317D01*
X168286412Y-79159909D01*
X168283297Y-79134299D01*
X168266504Y-79078314D01*
X168238863Y-79000559D01*
X168207995Y-78921416D01*
X168118616Y-78700663D01*
X167897364Y-78836123D01*
X167812338Y-78887502D01*
X167741580Y-78928974D01*
X167692167Y-78956485D01*
X167671175Y-78965978D01*
X167670963Y-78965874D01*
X167667119Y-78943868D01*
X167660339Y-78887900D01*
X167651545Y-78806168D01*
X167641658Y-78706868D01*
X167640579Y-78695602D01*
X167630622Y-78594962D01*
X167621640Y-78511065D01*
X167614561Y-78452091D01*
X167610308Y-78426219D01*
X167610058Y-78425751D01*
X167586443Y-78417908D01*
X167537456Y-78407656D01*
X167478535Y-78397562D01*
X167425119Y-78390195D01*
X167392648Y-78388120D01*
X167389172Y-78389021D01*
X167385252Y-78411476D01*
X167378869Y-78469383D01*
X167370664Y-78555973D01*
X167361279Y-78664479D01*
X167351693Y-78783814D01*
X167338600Y-78935247D01*
X167325382Y-79055040D01*
X167312466Y-79140061D01*
X167300280Y-79187179D01*
X167295621Y-79194789D01*
X167268974Y-79213731D01*
X167213174Y-79249952D01*
X167135354Y-79298932D01*
X167042650Y-79356149D01*
X166999708Y-79382327D01*
X166905335Y-79440481D01*
X166825357Y-79491359D01*
X166766091Y-79530815D01*
X166733853Y-79554705D01*
X166729833Y-79559410D01*
X166497896Y-79559410D01*
X166497776Y-79558806D01*
X166515376Y-79539938D01*
X166563918Y-79503562D01*
X166637766Y-79453490D01*
X166731289Y-79393532D01*
X166838853Y-79327499D01*
X166846045Y-79323179D01*
X167193540Y-79114692D01*
X167204966Y-79026845D01*
X167209565Y-78982384D01*
X167216643Y-78902319D01*
X167225663Y-78793275D01*
X167236089Y-78661874D01*
X167247385Y-78514739D01*
X167258174Y-78369951D01*
X167269463Y-78219434D01*
X167280124Y-78083330D01*
X167289689Y-77967175D01*
X167297686Y-77876506D01*
X167303644Y-77816861D01*
X167307093Y-77793777D01*
X167307140Y-77793719D01*
X167329039Y-77795119D01*
X167387497Y-77802566D01*
X167392648Y-77803296D01*
X167477291Y-77815292D01*
X167593200Y-77832532D01*
X167730000Y-77853519D01*
X167882469Y-77877488D01*
X167932273Y-77885432D01*
X168087286Y-77910762D01*
X168227007Y-77934601D01*
X168346457Y-77956017D01*
X168440660Y-77974081D01*
X168504636Y-77987861D01*
X168533409Y-77996428D01*
X168534319Y-77997963D01*
X168509252Y-78005223D01*
X168449118Y-78017201D01*
X168360765Y-78032696D01*
X168251045Y-78050505D01*
X168127043Y-78069394D01*
X168003646Y-78087900D01*
X167895527Y-78104654D01*
X167809321Y-78118584D01*
X167751660Y-78128618D01*
X167729180Y-78133683D01*
X167729149Y-78133711D01*
X167727250Y-78157555D01*
X167729762Y-78213932D01*
X167735723Y-78293383D01*
X167744173Y-78386450D01*
X167754147Y-78483674D01*
X167764686Y-78575598D01*
X167774827Y-78652761D01*
X167783608Y-78705707D01*
X167789230Y-78724547D01*
X167812719Y-78721428D01*
X167864315Y-78699316D01*
X167936373Y-78661888D01*
X168020258Y-78613422D01*
X168105445Y-78562793D01*
X168177656Y-78521437D01*
X168229121Y-78493700D01*
X168251873Y-78483915D01*
X168263670Y-78502286D01*
X168288063Y-78552346D01*
X168321832Y-78626520D01*
X168361753Y-78717229D01*
X168404606Y-78816896D01*
X168447170Y-78917944D01*
X168486222Y-79012796D01*
X168518541Y-79093874D01*
X168540907Y-79153602D01*
X168550096Y-79184403D01*
X168550167Y-79185521D01*
X168531564Y-79197280D01*
X168479912Y-79222027D01*
X168401448Y-79256977D01*
X168302409Y-79299344D01*
X168200917Y-79341483D01*
X168077805Y-79393460D01*
X167976751Y-79439221D01*
X167902562Y-79476407D01*
X167860045Y-79502660D01*
X167851667Y-79512840D01*
X167853661Y-79547200D01*
X167859155Y-79613801D01*
X167867411Y-79705262D01*
X167877695Y-79814205D01*
X167889270Y-79933252D01*
X167901400Y-80055023D01*
X167913351Y-80172139D01*
X167924385Y-80277222D01*
X167933768Y-80362892D01*
X167940763Y-80421771D01*
X167944635Y-80446479D01*
X167944791Y-80446761D01*
X167961645Y-80434454D01*
X168008935Y-80396840D01*
X168084534Y-80335667D01*
X168186317Y-80252683D01*
X168312158Y-80149635D01*
X168459933Y-80028271D01*
X168627515Y-79890338D01*
X168812780Y-79737584D01*
X169013601Y-79571756D01*
X169227854Y-79394603D01*
X169453412Y-79207871D01*
X169681392Y-79018915D01*
X169916188Y-78824272D01*
X170141915Y-78637291D01*
X170356430Y-78459742D01*
X170557589Y-78293391D01*
X170743248Y-78140007D01*
X170911263Y-78001358D01*
X171059489Y-77879212D01*
X171185784Y-77775337D01*
X171288003Y-77691500D01*
X171364003Y-77629471D01*
X171411639Y-77591016D01*
X171428700Y-77577919D01*
X171444557Y-77591170D01*
G36*
X171444557Y-77591170D02*
G01*
X171457537Y-77630836D01*
X171461884Y-77665827D01*
X171468998Y-77738592D01*
X171478621Y-77845783D01*
X171490495Y-77984052D01*
X171504364Y-78150050D01*
X171519969Y-78340431D01*
X171537054Y-78551845D01*
X171555360Y-78780944D01*
X171574630Y-79024381D01*
X171594607Y-79278807D01*
X171615033Y-79540875D01*
X171635650Y-79807235D01*
X171656201Y-80074541D01*
X171676429Y-80339444D01*
X171696076Y-80598596D01*
X171714885Y-80848649D01*
X171732597Y-81086255D01*
X171748956Y-81308065D01*
X171763704Y-81510733D01*
X171776583Y-81690908D01*
X171787336Y-81845245D01*
X171795706Y-81970394D01*
X171801435Y-82063007D01*
X171804265Y-82119736D01*
X171804144Y-82137327D01*
X171780423Y-82138244D01*
X171719991Y-82134127D01*
X171628101Y-82125517D01*
X171510007Y-82112957D01*
X171370962Y-82096988D01*
X171216220Y-82078151D01*
X171154286Y-82070340D01*
X170996587Y-82049738D01*
X170854170Y-82030121D01*
X170731979Y-82012253D01*
X170634956Y-81996895D01*
X170568046Y-81984808D01*
X170536192Y-81976756D01*
X170534410Y-81974799D01*
X170559573Y-81966023D01*
X170619103Y-81950954D01*
X170705790Y-81931250D01*
X170812420Y-81908567D01*
X170899667Y-81890889D01*
X171016634Y-81866952D01*
X171119205Y-81844605D01*
X171200097Y-81825541D01*
X171252027Y-81811458D01*
X171267488Y-81805274D01*
X171266848Y-81782431D01*
X171258841Y-81723270D01*
X171244446Y-81632975D01*
X171224646Y-81516730D01*
X171200423Y-81379720D01*
X171172757Y-81227128D01*
X171142630Y-81064139D01*
X171111024Y-80895935D01*
X171078920Y-80727702D01*
X171047299Y-80564624D01*
X171017143Y-80411883D01*
X170989433Y-80274665D01*
X170965151Y-80158154D01*
X170945278Y-80067532D01*
X170930795Y-80007985D01*
X170922842Y-79984834D01*
X170903290Y-79993662D01*
X170849658Y-80022652D01*
X170764312Y-80070435D01*
X170649620Y-80135640D01*
X170507951Y-80216899D01*
X170341671Y-80312841D01*
X170153148Y-80422097D01*
X169944751Y-80543297D01*
X169718846Y-80675073D01*
X169477802Y-80816054D01*
X169223987Y-80964871D01*
X168959767Y-81120154D01*
X168941750Y-81130756D01*
X168677133Y-81286230D01*
X168422869Y-81435136D01*
X168181315Y-81576122D01*
X167954825Y-81707834D01*
X167745755Y-81828919D01*
X167556460Y-81938024D01*
X167389295Y-82033794D01*
X167246614Y-82114877D01*
X167130774Y-82179920D01*
X167044130Y-82227569D01*
X166989036Y-82256471D01*
X166967848Y-82265272D01*
X166967692Y-82265087D01*
X166968254Y-82240123D01*
X166971835Y-82176755D01*
X166978166Y-82078786D01*
X166986980Y-81950017D01*
X166998006Y-81794251D01*
X167010977Y-81615289D01*
X167025625Y-81416934D01*
X167041680Y-81202987D01*
X167056093Y-81013538D01*
X167073087Y-80790062D01*
X167088883Y-80579491D01*
X167103215Y-80385555D01*
X167115818Y-80211982D01*
X167126427Y-80062503D01*
X167134777Y-79940847D01*
X167140602Y-79850745D01*
X167143638Y-79795924D01*
X167143819Y-79779846D01*
X167123039Y-79784982D01*
X167070948Y-79803543D01*
X166995294Y-79832633D01*
X166903828Y-79869357D01*
X166899328Y-79871198D01*
X166806403Y-79907401D01*
X166727717Y-79934566D01*
X166671373Y-79950140D01*
X166645472Y-79951570D01*
X166645194Y-79951307D01*
X166629340Y-79922303D01*
X166604505Y-79864843D01*
X166575045Y-79790530D01*
X166545320Y-79710970D01*
X166519687Y-79637766D01*
X166502504Y-79582521D01*
X166497896Y-79559410D01*
X166729833Y-79559410D01*
X166736604Y-79585424D01*
X166753811Y-79636669D01*
X166765339Y-79668541D01*
X166786658Y-79725436D01*
X166801096Y-79762622D01*
X166804263Y-79769909D01*
X166823864Y-79764368D01*
X166874656Y-79745272D01*
X166948879Y-79715642D01*
X167036409Y-79679490D01*
X167126866Y-79642931D01*
X167202520Y-79614875D01*
X167255276Y-79598154D01*
X167276894Y-79595421D01*
X167278833Y-79619063D01*
X167277673Y-79678643D01*
X167273712Y-79767900D01*
X167267247Y-79880575D01*
X167258577Y-80010407D01*
X167254476Y-80066839D01*
X167244646Y-80201190D01*
X167236240Y-80320272D01*
X167229661Y-80417989D01*
X167225316Y-80488244D01*
X167223608Y-80524940D01*
X167223775Y-80528877D01*
X167242174Y-80519536D01*
X167290581Y-80492216D01*
X167362622Y-80450584D01*
X167451922Y-80398309D01*
X167501907Y-80368822D01*
X167776565Y-80206387D01*
X167770192Y-80112443D01*
X167765864Y-80056925D01*
X167758428Y-79970012D01*
X167748830Y-79862447D01*
X167738015Y-79744973D01*
X167734928Y-79712078D01*
X167724980Y-79603656D01*
X167717072Y-79511762D01*
X167711807Y-79443865D01*
X167709785Y-79407438D01*
X167710059Y-79403312D01*
X167730062Y-79395090D01*
X167782301Y-79374084D01*
X167859672Y-79343142D01*
X167955067Y-79305108D01*
X167994766Y-79289308D01*
X168096054Y-79248121D01*
X168182670Y-79211211D01*
X168247237Y-79181852D01*
X168282376Y-79163317D01*
X168286412Y-79159909D01*
X168283297Y-79134299D01*
X168266504Y-79078314D01*
X168238863Y-79000559D01*
X168207995Y-78921416D01*
X168118616Y-78700663D01*
X167897364Y-78836123D01*
X167812338Y-78887502D01*
X167741580Y-78928974D01*
X167692167Y-78956485D01*
X167671175Y-78965978D01*
X167670963Y-78965874D01*
X167667119Y-78943868D01*
X167660339Y-78887900D01*
X167651545Y-78806168D01*
X167641658Y-78706868D01*
X167640579Y-78695602D01*
X167630622Y-78594962D01*
X167621640Y-78511065D01*
X167614561Y-78452091D01*
X167610308Y-78426219D01*
X167610058Y-78425751D01*
X167586443Y-78417908D01*
X167537456Y-78407656D01*
X167478535Y-78397562D01*
X167425119Y-78390195D01*
X167392648Y-78388120D01*
X167389172Y-78389021D01*
X167385252Y-78411476D01*
X167378869Y-78469383D01*
X167370664Y-78555973D01*
X167361279Y-78664479D01*
X167351693Y-78783814D01*
X167338600Y-78935247D01*
X167325382Y-79055040D01*
X167312466Y-79140061D01*
X167300280Y-79187179D01*
X167295621Y-79194789D01*
X167268974Y-79213731D01*
X167213174Y-79249952D01*
X167135354Y-79298932D01*
X167042650Y-79356149D01*
X166999708Y-79382327D01*
X166905335Y-79440481D01*
X166825357Y-79491359D01*
X166766091Y-79530815D01*
X166733853Y-79554705D01*
X166729833Y-79559410D01*
X166497896Y-79559410D01*
X166497776Y-79558806D01*
X166515376Y-79539938D01*
X166563918Y-79503562D01*
X166637766Y-79453490D01*
X166731289Y-79393532D01*
X166838853Y-79327499D01*
X166846045Y-79323179D01*
X167193540Y-79114692D01*
X167204966Y-79026845D01*
X167209565Y-78982384D01*
X167216643Y-78902319D01*
X167225663Y-78793275D01*
X167236089Y-78661874D01*
X167247385Y-78514739D01*
X167258174Y-78369951D01*
X167269463Y-78219434D01*
X167280124Y-78083330D01*
X167289689Y-77967175D01*
X167297686Y-77876506D01*
X167303644Y-77816861D01*
X167307093Y-77793777D01*
X167307140Y-77793719D01*
X167329039Y-77795119D01*
X167387497Y-77802566D01*
X167392648Y-77803296D01*
X167477291Y-77815292D01*
X167593200Y-77832532D01*
X167730000Y-77853519D01*
X167882469Y-77877488D01*
X167932273Y-77885432D01*
X168087286Y-77910762D01*
X168227007Y-77934601D01*
X168346457Y-77956017D01*
X168440660Y-77974081D01*
X168504636Y-77987861D01*
X168533409Y-77996428D01*
X168534319Y-77997963D01*
X168509252Y-78005223D01*
X168449118Y-78017201D01*
X168360765Y-78032696D01*
X168251045Y-78050505D01*
X168127043Y-78069394D01*
X168003646Y-78087900D01*
X167895527Y-78104654D01*
X167809321Y-78118584D01*
X167751660Y-78128618D01*
X167729180Y-78133683D01*
X167729149Y-78133711D01*
X167727250Y-78157555D01*
X167729762Y-78213932D01*
X167735723Y-78293383D01*
X167744173Y-78386450D01*
X167754147Y-78483674D01*
X167764686Y-78575598D01*
X167774827Y-78652761D01*
X167783608Y-78705707D01*
X167789230Y-78724547D01*
X167812719Y-78721428D01*
X167864315Y-78699316D01*
X167936373Y-78661888D01*
X168020258Y-78613422D01*
X168105445Y-78562793D01*
X168177656Y-78521437D01*
X168229121Y-78493700D01*
X168251873Y-78483915D01*
X168263670Y-78502286D01*
X168288063Y-78552346D01*
X168321832Y-78626520D01*
X168361753Y-78717229D01*
X168404606Y-78816896D01*
X168447170Y-78917944D01*
X168486222Y-79012796D01*
X168518541Y-79093874D01*
X168540907Y-79153602D01*
X168550096Y-79184403D01*
X168550167Y-79185521D01*
X168531564Y-79197280D01*
X168479912Y-79222027D01*
X168401448Y-79256977D01*
X168302409Y-79299344D01*
X168200917Y-79341483D01*
X168077805Y-79393460D01*
X167976751Y-79439221D01*
X167902562Y-79476407D01*
X167860045Y-79502660D01*
X167851667Y-79512840D01*
X167853661Y-79547200D01*
X167859155Y-79613801D01*
X167867411Y-79705262D01*
X167877695Y-79814205D01*
X167889270Y-79933252D01*
X167901400Y-80055023D01*
X167913351Y-80172139D01*
X167924385Y-80277222D01*
X167933768Y-80362892D01*
X167940763Y-80421771D01*
X167944635Y-80446479D01*
X167944791Y-80446761D01*
X167961645Y-80434454D01*
X168008935Y-80396840D01*
X168084534Y-80335667D01*
X168186317Y-80252683D01*
X168312158Y-80149635D01*
X168459933Y-80028271D01*
X168627515Y-79890338D01*
X168812780Y-79737584D01*
X169013601Y-79571756D01*
X169227854Y-79394603D01*
X169453412Y-79207871D01*
X169681392Y-79018915D01*
X169916188Y-78824272D01*
X170141915Y-78637291D01*
X170356430Y-78459742D01*
X170557589Y-78293391D01*
X170743248Y-78140007D01*
X170911263Y-78001358D01*
X171059489Y-77879212D01*
X171185784Y-77775337D01*
X171288003Y-77691500D01*
X171364003Y-77629471D01*
X171411639Y-77591016D01*
X171428700Y-77577919D01*
X171444557Y-77591170D01*
G37*
%TD*%
M02*
