%TF.GenerationSoftware,KiCad,Pcbnew,9.0.6*%
%TF.CreationDate,2025-11-13T00:04:26-05:00*%
%TF.ProjectId,mask-board,6d61736b-2d62-46f6-9172-642e6b696361,rev?*%
%TF.SameCoordinates,Original*%
%TF.FileFunction,Paste,Top*%
%TF.FilePolarity,Positive*%
%FSLAX46Y46*%
G04 Gerber Fmt 4.6, Leading zero omitted, Abs format (unit mm)*
G04 Created by KiCad (PCBNEW 9.0.6) date 2025-11-13 00:04:26*
%MOMM*%
%LPD*%
G01*
G04 APERTURE LIST*
G04 Aperture macros list*
%AMRoundRect*
0 Rectangle with rounded corners*
0 $1 Rounding radius*
0 $2 $3 $4 $5 $6 $7 $8 $9 X,Y pos of 4 corners*
0 Add a 4 corners polygon primitive as box body*
4,1,4,$2,$3,$4,$5,$6,$7,$8,$9,$2,$3,0*
0 Add four circle primitives for the rounded corners*
1,1,$1+$1,$2,$3*
1,1,$1+$1,$4,$5*
1,1,$1+$1,$6,$7*
1,1,$1+$1,$8,$9*
0 Add four rect primitives between the rounded corners*
20,1,$1+$1,$2,$3,$4,$5,0*
20,1,$1+$1,$4,$5,$6,$7,0*
20,1,$1+$1,$6,$7,$8,$9,0*
20,1,$1+$1,$8,$9,$2,$3,0*%
G04 Aperture macros list end*
%ADD10C,0.010000*%
%ADD11RoundRect,0.200000X-0.200000X-0.275000X0.200000X-0.275000X0.200000X0.275000X-0.200000X0.275000X0*%
%ADD12RoundRect,0.200000X0.275000X-0.200000X0.275000X0.200000X-0.275000X0.200000X-0.275000X-0.200000X0*%
%ADD13R,0.400000X0.550000*%
%ADD14RoundRect,0.200000X-0.275000X0.200000X-0.275000X-0.200000X0.275000X-0.200000X0.275000X0.200000X0*%
%ADD15RoundRect,0.225000X0.250000X-0.225000X0.250000X0.225000X-0.250000X0.225000X-0.250000X-0.225000X0*%
%ADD16RoundRect,0.105000X0.395000X0.245000X-0.395000X0.245000X-0.395000X-0.245000X0.395000X-0.245000X0*%
%ADD17RoundRect,0.225000X0.225000X0.250000X-0.225000X0.250000X-0.225000X-0.250000X0.225000X-0.250000X0*%
%ADD18R,1.200000X1.200000*%
%ADD19RoundRect,0.200000X0.200000X0.275000X-0.200000X0.275000X-0.200000X-0.275000X0.200000X-0.275000X0*%
%ADD20RoundRect,0.225000X-0.250000X0.225000X-0.250000X-0.225000X0.250000X-0.225000X0.250000X0.225000X0*%
%ADD21RoundRect,0.150000X-0.587500X-0.150000X0.587500X-0.150000X0.587500X0.150000X-0.587500X0.150000X0*%
%ADD22RoundRect,0.100000X-0.637500X-0.100000X0.637500X-0.100000X0.637500X0.100000X-0.637500X0.100000X0*%
%ADD23RoundRect,0.225000X-0.225000X-0.250000X0.225000X-0.250000X0.225000X0.250000X-0.225000X0.250000X0*%
%ADD24R,0.612132X1.805236*%
%ADD25RoundRect,0.150000X0.587500X0.150000X-0.587500X0.150000X-0.587500X-0.150000X0.587500X-0.150000X0*%
G04 APERTURE END LIST*
D10*
%TO.C,U3*%
X144768000Y-96245000D02*
X144768000Y-97045000D01*
X143268000Y-97045000D01*
X143268000Y-95995000D01*
X144518000Y-95995000D01*
X144768000Y-96245000D01*
G36*
X144768000Y-96245000D02*
G01*
X144768000Y-97045000D01*
X143268000Y-97045000D01*
X143268000Y-95995000D01*
X144518000Y-95995000D01*
X144768000Y-96245000D01*
G37*
%TD*%
D11*
%TO.C,R5*%
X133570000Y-86042500D03*
X135220000Y-86042500D03*
%TD*%
D12*
%TO.C,R4*%
X130492500Y-85597500D03*
X130492500Y-83947500D03*
%TD*%
D13*
%TO.C,U3*%
X144818000Y-95370000D03*
X144018000Y-95370000D03*
X143218000Y-95370000D03*
X143218000Y-97670000D03*
X144018000Y-97670000D03*
X144818000Y-97670000D03*
%TD*%
D14*
%TO.C,R1*%
X147028000Y-95575000D03*
X147028000Y-97225000D03*
%TD*%
D15*
%TO.C,C17*%
X157480000Y-106185000D03*
X157480000Y-104635000D03*
%TD*%
D16*
%TO.C,D1*%
X133087500Y-83002500D03*
X133087500Y-84002500D03*
X134687500Y-84002500D03*
X134687500Y-83002500D03*
%TD*%
D17*
%TO.C,C2*%
X125232501Y-81772501D03*
X123682501Y-81772501D03*
%TD*%
%TO.C,C4*%
X143993000Y-99575000D03*
X142443000Y-99575000D03*
%TD*%
D12*
%TO.C,R20*%
X159067500Y-83692500D03*
X159067500Y-82042500D03*
%TD*%
D18*
%TO.C,D3*%
X161290000Y-81092500D03*
X161290000Y-78292500D03*
%TD*%
D11*
%TO.C,R7*%
X128715000Y-94996000D03*
X130365000Y-94996000D03*
%TD*%
D14*
%TO.C,R11*%
X153352500Y-97600000D03*
X153352500Y-99250000D03*
%TD*%
D19*
%TO.C,R16*%
X141477500Y-85090000D03*
X139827500Y-85090000D03*
%TD*%
D15*
%TO.C,C7*%
X128587500Y-93145000D03*
X128587500Y-91595000D03*
%TD*%
D20*
%TO.C,C14*%
X149546000Y-77978000D03*
X149546000Y-79528000D03*
%TD*%
D12*
%TO.C,R15*%
X156527500Y-93852500D03*
X156527500Y-92202500D03*
%TD*%
D21*
%TO.C,Q4*%
X156860000Y-87632500D03*
X156860000Y-89532500D03*
X158735000Y-88582500D03*
%TD*%
%TO.C,Q3*%
X155907500Y-78107500D03*
X155907500Y-80007500D03*
X157782500Y-79057500D03*
%TD*%
D17*
%TO.C,C1*%
X125232501Y-89392501D03*
X123682501Y-89392501D03*
%TD*%
D15*
%TO.C,C10*%
X122872500Y-93145000D03*
X122872500Y-91595000D03*
%TD*%
D21*
%TO.C,Q2*%
X156542500Y-99062500D03*
X156542500Y-100962500D03*
X158417500Y-100012500D03*
%TD*%
D12*
%TO.C,R19*%
X158432500Y-93852500D03*
X158432500Y-92202500D03*
%TD*%
D18*
%TO.C,D2*%
X161290000Y-102105000D03*
X161290000Y-104905000D03*
%TD*%
D20*
%TO.C,C13*%
X152056000Y-77978000D03*
X152056000Y-79528000D03*
%TD*%
%TO.C,C15*%
X147036000Y-77978000D03*
X147036000Y-79528000D03*
%TD*%
D22*
%TO.C,U1*%
X135250000Y-88175000D03*
X135250000Y-88825000D03*
X135250000Y-89475000D03*
X135250000Y-90125000D03*
X135250000Y-90775000D03*
X135250000Y-91425000D03*
X135250000Y-92075000D03*
X135250000Y-92725000D03*
X135250000Y-93375000D03*
X135250000Y-94025000D03*
X140975000Y-94025000D03*
X140975000Y-93375000D03*
X140975000Y-92725000D03*
X140975000Y-92075000D03*
X140975000Y-91425000D03*
X140975000Y-90775000D03*
X140975000Y-90125000D03*
X140975000Y-89475000D03*
X140975000Y-88825000D03*
X140975000Y-88175000D03*
%TD*%
D20*
%TO.C,C16*%
X144526000Y-77978000D03*
X144526000Y-79528000D03*
%TD*%
D15*
%TO.C,C18*%
X153670000Y-106185000D03*
X153670000Y-104635000D03*
%TD*%
D23*
%TO.C,C3*%
X143687500Y-93662500D03*
X145237500Y-93662500D03*
%TD*%
D15*
%TO.C,C6*%
X130492500Y-93145000D03*
X130492500Y-91595000D03*
%TD*%
D11*
%TO.C,R18*%
X159830000Y-95567500D03*
X161480000Y-95567500D03*
%TD*%
D12*
%TO.C,R13*%
X157162500Y-83692500D03*
X157162500Y-82042500D03*
%TD*%
D15*
%TO.C,C8*%
X126682500Y-93145000D03*
X126682500Y-91595000D03*
%TD*%
D18*
%TO.C,D4*%
X161290000Y-93287500D03*
X161290000Y-90487500D03*
%TD*%
D12*
%TO.C,R12*%
X155257500Y-83692500D03*
X155257500Y-82042500D03*
%TD*%
D19*
%TO.C,R17*%
X141477500Y-86677500D03*
X139827500Y-86677500D03*
%TD*%
D24*
%TO.C,U2*%
X125407502Y-84432018D03*
X124457501Y-84432018D03*
X123507500Y-84432018D03*
X123507500Y-86732984D03*
X125407502Y-86732984D03*
%TD*%
D12*
%TO.C,R9*%
X127952500Y-83565000D03*
X127952500Y-81915000D03*
%TD*%
D15*
%TO.C,C5*%
X132397500Y-93145000D03*
X132397500Y-91595000D03*
%TD*%
D12*
%TO.C,R21*%
X160972500Y-84962500D03*
X160972500Y-83312500D03*
%TD*%
D15*
%TO.C,C9*%
X124777500Y-93145000D03*
X124777500Y-91595000D03*
%TD*%
D20*
%TO.C,C11*%
X129215000Y-88280000D03*
X129215000Y-89830000D03*
%TD*%
D19*
%TO.C,R3*%
X147383000Y-99575000D03*
X145733000Y-99575000D03*
%TD*%
D15*
%TO.C,C19*%
X155575000Y-106185000D03*
X155575000Y-104635000D03*
%TD*%
D14*
%TO.C,R8*%
X127310000Y-86572500D03*
X127310000Y-88222500D03*
%TD*%
%TO.C,R10*%
X151447500Y-97600000D03*
X151447500Y-99250000D03*
%TD*%
D12*
%TO.C,R2*%
X141478000Y-97091000D03*
X141478000Y-95441000D03*
%TD*%
D25*
%TO.C,Q1*%
X141605000Y-83502500D03*
X141605000Y-81602500D03*
X139730000Y-82552500D03*
%TD*%
D12*
%TO.C,R6*%
X137062500Y-86232500D03*
X137062500Y-84582500D03*
%TD*%
%TO.C,R14*%
X154622500Y-93852500D03*
X154622500Y-92202500D03*
%TD*%
M02*
