M48
; DRILL file {KiCad 9.0.6} date 2025-11-13T00:04:30-0500
; FORMAT={-:-/ absolute / metric / decimal}
; #@! TF.CreationDate,2025-11-13T00:04:30-05:00
; #@! TF.GenerationSoftware,Kicad,Pcbnew,9.0.6
; #@! TF.FileFunction,Plated,1,2,PTH
FMAT,2
METRIC
; #@! TA.AperFunction,Plated,PTH,ViaDrill
T1C0.300
; #@! TA.AperFunction,Plated,PTH,ComponentDrill
T2C0.950
; #@! TA.AperFunction,Plated,PTH,ComponentDrill
T3C1.000
; #@! TA.AperFunction,Plated,PTH,ComponentDrill
T4C1.100
%
G90
G05
T1
X122.237Y-85.407
X127.0Y-89.852
X131.06Y-90.125
X131.752Y-83.195
X133.512Y-92.075
X138.112Y-81.602
X140.382Y-94.996
X142.443Y-98.445
X142.748Y-94.386
X142.912Y-89.475
X145.9Y-98.447
X152.056Y-81.898
X153.797Y-77.978
X157.416Y-91.185
X157.48Y-102.87
X158.115Y-80.962
T2
X164.782Y-79.375
X164.782Y-81.875
X164.782Y-84.375
X164.782Y-90.845
X164.782Y-93.345
X164.782Y-95.845
T3
X123.19Y-78.74
X123.19Y-97.79
X123.19Y-100.33
X123.19Y-102.87
X123.19Y-105.41
X125.73Y-78.74
X128.27Y-78.74
X130.81Y-78.74
X133.35Y-78.74
X135.89Y-78.74
X138.43Y-78.74
X140.97Y-78.74
X141.922Y-105.41
X144.463Y-105.41
X147.002Y-105.41
X148.59Y-83.205
X148.59Y-90.805
X149.542Y-105.41
X164.782Y-102.275
X164.782Y-104.775
T4
X130.735Y-100.965
X130.735Y-105.465
X137.235Y-100.965
X137.235Y-105.465
M30
