%TF.GenerationSoftware,KiCad,Pcbnew,9.0.6*%
%TF.CreationDate,2025-11-13T00:04:26-05:00*%
%TF.ProjectId,mask-board,6d61736b-2d62-46f6-9172-642e6b696361,rev?*%
%TF.SameCoordinates,Original*%
%TF.FileFunction,Copper,L1,Top*%
%TF.FilePolarity,Positive*%
%FSLAX46Y46*%
G04 Gerber Fmt 4.6, Leading zero omitted, Abs format (unit mm)*
G04 Created by KiCad (PCBNEW 9.0.6) date 2025-11-13 00:04:26*
%MOMM*%
%LPD*%
G01*
G04 APERTURE LIST*
G04 Aperture macros list*
%AMRoundRect*
0 Rectangle with rounded corners*
0 $1 Rounding radius*
0 $2 $3 $4 $5 $6 $7 $8 $9 X,Y pos of 4 corners*
0 Add a 4 corners polygon primitive as box body*
4,1,4,$2,$3,$4,$5,$6,$7,$8,$9,$2,$3,0*
0 Add four circle primitives for the rounded corners*
1,1,$1+$1,$2,$3*
1,1,$1+$1,$4,$5*
1,1,$1+$1,$6,$7*
1,1,$1+$1,$8,$9*
0 Add four rect primitives between the rounded corners*
20,1,$1+$1,$2,$3,$4,$5,0*
20,1,$1+$1,$4,$5,$6,$7,0*
20,1,$1+$1,$6,$7,$8,$9,0*
20,1,$1+$1,$8,$9,$2,$3,0*%
%AMFreePoly0*
4,1,14,0.628536,0.853536,0.630000,0.850000,0.630000,-0.850000,0.628536,-0.853536,0.625000,-0.855000,-0.625000,-0.855000,-0.628536,-0.853536,-0.630000,-0.850000,-0.630000,0.550000,-0.628536,0.553536,-0.328536,0.853536,-0.325000,0.855000,0.625000,0.855000,0.628536,0.853536,0.628536,0.853536,$1*%
G04 Aperture macros list end*
%TA.AperFunction,SMDPad,CuDef*%
%ADD10RoundRect,0.200000X-0.200000X-0.275000X0.200000X-0.275000X0.200000X0.275000X-0.200000X0.275000X0*%
%TD*%
%TA.AperFunction,ComponentPad*%
%ADD11RoundRect,0.250000X0.725000X-0.600000X0.725000X0.600000X-0.725000X0.600000X-0.725000X-0.600000X0*%
%TD*%
%TA.AperFunction,ComponentPad*%
%ADD12O,1.950000X1.700000*%
%TD*%
%TA.AperFunction,SMDPad,CuDef*%
%ADD13RoundRect,0.200000X0.275000X-0.200000X0.275000X0.200000X-0.275000X0.200000X-0.275000X-0.200000X0*%
%TD*%
%TA.AperFunction,SMDPad,CuDef*%
%ADD14R,0.400000X0.550000*%
%TD*%
%TA.AperFunction,SMDPad,CuDef*%
%ADD15FreePoly0,270.000000*%
%TD*%
%TA.AperFunction,SMDPad,CuDef*%
%ADD16RoundRect,0.200000X-0.275000X0.200000X-0.275000X-0.200000X0.275000X-0.200000X0.275000X0.200000X0*%
%TD*%
%TA.AperFunction,SMDPad,CuDef*%
%ADD17RoundRect,0.225000X0.250000X-0.225000X0.250000X0.225000X-0.250000X0.225000X-0.250000X-0.225000X0*%
%TD*%
%TA.AperFunction,SMDPad,CuDef*%
%ADD18RoundRect,0.105000X0.395000X0.245000X-0.395000X0.245000X-0.395000X-0.245000X0.395000X-0.245000X0*%
%TD*%
%TA.AperFunction,SMDPad,CuDef*%
%ADD19RoundRect,0.225000X0.225000X0.250000X-0.225000X0.250000X-0.225000X-0.250000X0.225000X-0.250000X0*%
%TD*%
%TA.AperFunction,ComponentPad*%
%ADD20R,1.700000X1.700000*%
%TD*%
%TA.AperFunction,ComponentPad*%
%ADD21C,1.700000*%
%TD*%
%TA.AperFunction,SMDPad,CuDef*%
%ADD22R,1.200000X1.200000*%
%TD*%
%TA.AperFunction,SMDPad,CuDef*%
%ADD23RoundRect,0.200000X0.200000X0.275000X-0.200000X0.275000X-0.200000X-0.275000X0.200000X-0.275000X0*%
%TD*%
%TA.AperFunction,SMDPad,CuDef*%
%ADD24RoundRect,0.225000X-0.250000X0.225000X-0.250000X-0.225000X0.250000X-0.225000X0.250000X0.225000X0*%
%TD*%
%TA.AperFunction,SMDPad,CuDef*%
%ADD25RoundRect,0.150000X-0.587500X-0.150000X0.587500X-0.150000X0.587500X0.150000X-0.587500X0.150000X0*%
%TD*%
%TA.AperFunction,SMDPad,CuDef*%
%ADD26RoundRect,0.100000X-0.637500X-0.100000X0.637500X-0.100000X0.637500X0.100000X-0.637500X0.100000X0*%
%TD*%
%TA.AperFunction,SMDPad,CuDef*%
%ADD27RoundRect,0.225000X-0.225000X-0.250000X0.225000X-0.250000X0.225000X0.250000X-0.225000X0.250000X0*%
%TD*%
%TA.AperFunction,ComponentPad*%
%ADD28RoundRect,0.250000X0.750000X-0.600000X0.750000X0.600000X-0.750000X0.600000X-0.750000X-0.600000X0*%
%TD*%
%TA.AperFunction,ComponentPad*%
%ADD29O,2.000000X1.700000*%
%TD*%
%TA.AperFunction,ComponentPad*%
%ADD30R,1.600000X1.600000*%
%TD*%
%TA.AperFunction,ComponentPad*%
%ADD31C,1.600000*%
%TD*%
%TA.AperFunction,ComponentPad*%
%ADD32C,2.000000*%
%TD*%
%TA.AperFunction,SMDPad,CuDef*%
%ADD33R,0.612132X1.805236*%
%TD*%
%TA.AperFunction,SMDPad,CuDef*%
%ADD34RoundRect,0.150000X0.587500X0.150000X-0.587500X0.150000X-0.587500X-0.150000X0.587500X-0.150000X0*%
%TD*%
%TA.AperFunction,ViaPad*%
%ADD35C,0.600000*%
%TD*%
%TA.AperFunction,Conductor*%
%ADD36C,0.300000*%
%TD*%
%TA.AperFunction,Conductor*%
%ADD37C,0.780000*%
%TD*%
%TA.AperFunction,Conductor*%
%ADD38C,0.200000*%
%TD*%
G04 APERTURE END LIST*
D10*
%TO.P,R5,1*%
%TO.N,LED_GREEN*%
X133570000Y-86042500D03*
%TO.P,R5,2*%
%TO.N,Net-(D1-GK)*%
X135220000Y-86042500D03*
%TD*%
D11*
%TO.P,M1,1,-*%
%TO.N,Net-(D3-A)*%
X164782500Y-79375000D03*
D12*
%TO.P,M1,2,+*%
%TO.N,+5V*%
X164782500Y-81875000D03*
%TO.P,M1,3,Tacho*%
%TO.N,Net-(M1-Tacho)*%
X164782500Y-84375000D03*
%TD*%
D13*
%TO.P,R4,1*%
%TO.N,LED_RED*%
X130492500Y-85597500D03*
%TO.P,R4,2*%
%TO.N,Net-(D1-RK)*%
X130492500Y-83947500D03*
%TD*%
D14*
%TO.P,U3,1,VDD*%
%TO.N,Net-(U3-VDD)*%
X144818000Y-95370000D03*
%TO.P,U3,2,VSS*%
%TO.N,GND*%
X144018000Y-95370000D03*
%TO.P,U3,3,SDA*%
%TO.N,SDA*%
X143218000Y-95370000D03*
%TO.P,U3,4,N/A*%
%TO.N,GND*%
X143218000Y-97670000D03*
%TO.P,U3,5,VDDH*%
%TO.N,+3V3*%
X144018000Y-97670000D03*
%TO.P,U3,6,SCL*%
%TO.N,SCL*%
X144818000Y-97670000D03*
D15*
%TO.P,U3,7,EXP*%
%TO.N,GND*%
X144018000Y-96520000D03*
%TD*%
D16*
%TO.P,R1,1*%
%TO.N,Net-(U3-VDD)*%
X147028000Y-95575000D03*
%TO.P,R1,2*%
%TO.N,+3V3*%
X147028000Y-97225000D03*
%TD*%
D17*
%TO.P,C17,1*%
%TO.N,+3V3*%
X157480000Y-106185000D03*
%TO.P,C17,2*%
%TO.N,GND*%
X157480000Y-104635000D03*
%TD*%
D18*
%TO.P,D1,1,A*%
%TO.N,+3V3*%
X133087500Y-83002500D03*
%TO.P,D1,2,RK*%
%TO.N,Net-(D1-RK)*%
X133087500Y-84002500D03*
%TO.P,D1,3,GK*%
%TO.N,Net-(D1-GK)*%
X134687500Y-84002500D03*
%TO.P,D1,4,BK*%
%TO.N,Net-(D1-BK)*%
X134687500Y-83002500D03*
%TD*%
D19*
%TO.P,C2,1*%
%TO.N,+BATT*%
X125232501Y-81772501D03*
%TO.P,C2,2*%
%TO.N,GND*%
X123682501Y-81772501D03*
%TD*%
D20*
%TO.P,J2,1,GND*%
%TO.N,GND*%
X141922500Y-105410000D03*
D21*
%TO.P,J2,2,3V3*%
%TO.N,+3V3*%
X144462500Y-105410000D03*
%TO.P,J2,3,SDA*%
%TO.N,SDA*%
X147002500Y-105410000D03*
%TO.P,J2,4,SCL*%
%TO.N,SCL*%
X149542500Y-105410000D03*
%TD*%
D19*
%TO.P,C4,1*%
%TO.N,+3V3*%
X143993000Y-99575000D03*
%TO.P,C4,2*%
%TO.N,GND*%
X142443000Y-99575000D03*
%TD*%
D13*
%TO.P,R20,1*%
%TO.N,FAN_1_TACHO*%
X159067500Y-83692500D03*
%TO.P,R20,2*%
%TO.N,GND*%
X159067500Y-82042500D03*
%TD*%
D22*
%TO.P,D3,1,K*%
%TO.N,+5V*%
X161290000Y-81092500D03*
%TO.P,D3,2,A*%
%TO.N,Net-(D3-A)*%
X161290000Y-78292500D03*
%TD*%
D11*
%TO.P,M2,1,-*%
%TO.N,Net-(D4-A)*%
X164782500Y-90845000D03*
D12*
%TO.P,M2,2,+*%
%TO.N,+5V*%
X164782500Y-93345000D03*
%TO.P,M2,3,Tacho*%
%TO.N,Net-(M2-Tacho)*%
X164782500Y-95845000D03*
%TD*%
D10*
%TO.P,R7,1*%
%TO.N,+3V3*%
X128715000Y-94996000D03*
%TO.P,R7,2*%
%TO.N,Net-(U1-PA3)*%
X130365000Y-94996000D03*
%TD*%
D16*
%TO.P,R11,1*%
%TO.N,ERM_MOTOR*%
X153352500Y-97600000D03*
%TO.P,R11,2*%
%TO.N,Net-(Q2-G)*%
X153352500Y-99250000D03*
%TD*%
D23*
%TO.P,R16,1*%
%TO.N,BUZZER*%
X141477500Y-85090000D03*
%TO.P,R16,2*%
%TO.N,Net-(Q1-G)*%
X139827500Y-85090000D03*
%TD*%
D17*
%TO.P,C7,1*%
%TO.N,+3V3*%
X128587500Y-93145000D03*
%TO.P,C7,2*%
%TO.N,GND*%
X128587500Y-91595000D03*
%TD*%
D24*
%TO.P,C14,1*%
%TO.N,+5V*%
X149546000Y-77978000D03*
%TO.P,C14,2*%
%TO.N,GND*%
X149546000Y-79528000D03*
%TD*%
D13*
%TO.P,R15,1*%
%TO.N,FAN_2*%
X156527500Y-93852500D03*
%TO.P,R15,2*%
%TO.N,GND*%
X156527500Y-92202500D03*
%TD*%
D25*
%TO.P,Q4,1,G*%
%TO.N,Net-(Q4-G)*%
X156860000Y-87632500D03*
%TO.P,Q4,2,S*%
%TO.N,GND*%
X156860000Y-89532500D03*
%TO.P,Q4,3,D*%
%TO.N,Net-(D4-A)*%
X158735000Y-88582500D03*
%TD*%
%TO.P,Q3,1,G*%
%TO.N,Net-(Q3-G)*%
X155907500Y-78107500D03*
%TO.P,Q3,2,S*%
%TO.N,GND*%
X155907500Y-80007500D03*
%TO.P,Q3,3,D*%
%TO.N,Net-(D3-A)*%
X157782500Y-79057500D03*
%TD*%
D19*
%TO.P,C1,1*%
%TO.N,+3V3*%
X125232501Y-89392501D03*
%TO.P,C1,2*%
%TO.N,GND*%
X123682501Y-89392501D03*
%TD*%
D17*
%TO.P,C10,1*%
%TO.N,+3V3*%
X122872500Y-93145000D03*
%TO.P,C10,2*%
%TO.N,GND*%
X122872500Y-91595000D03*
%TD*%
D25*
%TO.P,Q2,1,G*%
%TO.N,Net-(Q2-G)*%
X156542500Y-99062500D03*
%TO.P,Q2,2,S*%
%TO.N,GND*%
X156542500Y-100962500D03*
%TO.P,Q2,3,D*%
%TO.N,Net-(D2-A)*%
X158417500Y-100012500D03*
%TD*%
D13*
%TO.P,R19,1*%
%TO.N,FAN_2_TACHO*%
X158432500Y-93852500D03*
%TO.P,R19,2*%
%TO.N,GND*%
X158432500Y-92202500D03*
%TD*%
D22*
%TO.P,D2,1,K*%
%TO.N,+3V3*%
X161290000Y-102105000D03*
%TO.P,D2,2,A*%
%TO.N,Net-(D2-A)*%
X161290000Y-104905000D03*
%TD*%
D24*
%TO.P,C13,1*%
%TO.N,+5V*%
X152056000Y-77978000D03*
%TO.P,C13,2*%
%TO.N,GND*%
X152056000Y-79528000D03*
%TD*%
%TO.P,C15,1*%
%TO.N,+5V*%
X147036000Y-77978000D03*
%TO.P,C15,2*%
%TO.N,GND*%
X147036000Y-79528000D03*
%TD*%
D26*
%TO.P,U1,1,PD4*%
%TO.N,LED_GREEN*%
X135250000Y-88175000D03*
%TO.P,U1,2,PD5*%
%TO.N,LED_RED*%
X135250000Y-88825000D03*
%TO.P,U1,3,PD6*%
%TO.N,Net-(U1-PD6)*%
X135250000Y-89475000D03*
%TO.P,U1,4,NRST*%
%TO.N,RESET*%
X135250000Y-90125000D03*
%TO.P,U1,5,PA1*%
%TO.N,unconnected-(U1-PA1-Pad5)*%
X135250000Y-90775000D03*
%TO.P,U1,6,PA2*%
%TO.N,unconnected-(U1-PA2-Pad6)*%
X135250000Y-91425000D03*
%TO.P,U1,7,VSS*%
%TO.N,GND*%
X135250000Y-92075000D03*
%TO.P,U1,8,VCAP*%
%TO.N,Net-(U1-VCAP)*%
X135250000Y-92725000D03*
%TO.P,U1,9,VDD*%
%TO.N,+3V3*%
X135250000Y-93375000D03*
%TO.P,U1,10,PA3*%
%TO.N,Net-(U1-PA3)*%
X135250000Y-94025000D03*
%TO.P,U1,11,PB5*%
%TO.N,SDA*%
X140975000Y-94025000D03*
%TO.P,U1,12,PB4*%
%TO.N,SCL*%
X140975000Y-93375000D03*
%TO.P,U1,13,PC3*%
%TO.N,ERM_MOTOR*%
X140975000Y-92725000D03*
%TO.P,U1,14,PC4*%
%TO.N,FAN_2_TACHO*%
X140975000Y-92075000D03*
%TO.P,U1,15,PC5*%
%TO.N,FAN_2*%
X140975000Y-91425000D03*
%TO.P,U1,16,PC6*%
%TO.N,FAN_1_TACHO*%
X140975000Y-90775000D03*
%TO.P,U1,17,PC7*%
%TO.N,FAN_1*%
X140975000Y-90125000D03*
%TO.P,U1,18,PD1*%
%TO.N,SWIM*%
X140975000Y-89475000D03*
%TO.P,U1,19,PD2*%
%TO.N,BUZZER*%
X140975000Y-88825000D03*
%TO.P,U1,20,PD3*%
%TO.N,LED_BLUE*%
X140975000Y-88175000D03*
%TD*%
D24*
%TO.P,C16,1*%
%TO.N,+5V*%
X144526000Y-77978000D03*
%TO.P,C16,2*%
%TO.N,GND*%
X144526000Y-79528000D03*
%TD*%
D17*
%TO.P,C18,1*%
%TO.N,+3V3*%
X153670000Y-106185000D03*
%TO.P,C18,2*%
%TO.N,GND*%
X153670000Y-104635000D03*
%TD*%
D27*
%TO.P,C3,1*%
%TO.N,GND*%
X143687500Y-93662500D03*
%TO.P,C3,2*%
%TO.N,Net-(U3-VDD)*%
X145237500Y-93662500D03*
%TD*%
D28*
%TO.P,M3,1,+*%
%TO.N,+3V3*%
X164782500Y-102275000D03*
D29*
%TO.P,M3,2,-*%
%TO.N,Net-(D2-A)*%
X164782500Y-104775000D03*
%TD*%
D30*
%TO.P,BZ1,1,+*%
%TO.N,+3V3*%
X148590000Y-90805000D03*
D31*
%TO.P,BZ1,2,-*%
%TO.N,Net-(BZ1--)*%
X148590000Y-83205000D03*
%TD*%
D17*
%TO.P,C6,1*%
%TO.N,+3V3*%
X130492500Y-93145000D03*
%TO.P,C6,2*%
%TO.N,GND*%
X130492500Y-91595000D03*
%TD*%
D10*
%TO.P,R18,1*%
%TO.N,FAN_2_TACHO*%
X159830000Y-95567500D03*
%TO.P,R18,2*%
%TO.N,Net-(M2-Tacho)*%
X161480000Y-95567500D03*
%TD*%
D13*
%TO.P,R13,1*%
%TO.N,FAN_1*%
X157162500Y-83692500D03*
%TO.P,R13,2*%
%TO.N,GND*%
X157162500Y-82042500D03*
%TD*%
D17*
%TO.P,C8,1*%
%TO.N,+3V3*%
X126682500Y-93145000D03*
%TO.P,C8,2*%
%TO.N,GND*%
X126682500Y-91595000D03*
%TD*%
D22*
%TO.P,D4,1,K*%
%TO.N,+5V*%
X161290000Y-93287500D03*
%TO.P,D4,2,A*%
%TO.N,Net-(D4-A)*%
X161290000Y-90487500D03*
%TD*%
D13*
%TO.P,R12,1*%
%TO.N,FAN_1*%
X155257500Y-83692500D03*
%TO.P,R12,2*%
%TO.N,Net-(Q3-G)*%
X155257500Y-82042500D03*
%TD*%
D32*
%TO.P,SW1,1,1*%
%TO.N,GND*%
X137235000Y-105465000D03*
X130735000Y-105465000D03*
%TO.P,SW1,2,2*%
%TO.N,Net-(U1-PA3)*%
X137235000Y-100965000D03*
X130735000Y-100965000D03*
%TD*%
D23*
%TO.P,R17,1*%
%TO.N,BUZZER*%
X141477500Y-86677500D03*
%TO.P,R17,2*%
%TO.N,GND*%
X139827500Y-86677500D03*
%TD*%
D33*
%TO.P,U2,1,IN*%
%TO.N,+BATT*%
X125407502Y-84432018D03*
%TO.P,U2,2,GND*%
%TO.N,GND*%
X124457501Y-84432018D03*
%TO.P,U2,3,EN*%
%TO.N,+BATT*%
X123507500Y-84432018D03*
%TO.P,U2,4,NC*%
%TO.N,GND*%
X123507500Y-86732984D03*
%TO.P,U2,5,OUT*%
%TO.N,+3V3*%
X125407502Y-86732984D03*
%TD*%
D13*
%TO.P,R9,1*%
%TO.N,Net-(U1-PD6)*%
X127952500Y-83565000D03*
%TO.P,R9,2*%
%TO.N,+BATT*%
X127952500Y-81915000D03*
%TD*%
D17*
%TO.P,C5,1*%
%TO.N,Net-(U1-VCAP)*%
X132397500Y-93145000D03*
%TO.P,C5,2*%
%TO.N,GND*%
X132397500Y-91595000D03*
%TD*%
D13*
%TO.P,R21,1*%
%TO.N,FAN_1_TACHO*%
X160972500Y-84962500D03*
%TO.P,R21,2*%
%TO.N,Net-(M1-Tacho)*%
X160972500Y-83312500D03*
%TD*%
D17*
%TO.P,C9,1*%
%TO.N,+3V3*%
X124777500Y-93145000D03*
%TO.P,C9,2*%
%TO.N,GND*%
X124777500Y-91595000D03*
%TD*%
D24*
%TO.P,C11,1*%
%TO.N,RESET*%
X129215000Y-88280000D03*
%TO.P,C11,2*%
%TO.N,GND*%
X129215000Y-89830000D03*
%TD*%
D23*
%TO.P,R3,1*%
%TO.N,+3V3*%
X147383000Y-99575000D03*
%TO.P,R3,2*%
%TO.N,SCL*%
X145733000Y-99575000D03*
%TD*%
D17*
%TO.P,C19,1*%
%TO.N,+3V3*%
X155575000Y-106185000D03*
%TO.P,C19,2*%
%TO.N,GND*%
X155575000Y-104635000D03*
%TD*%
D20*
%TO.P,J1,1,RST*%
%TO.N,RESET*%
X123190000Y-97790000D03*
D21*
%TO.P,J1,2,GND*%
%TO.N,GND*%
X123190000Y-100330000D03*
%TO.P,J1,3,SWIM*%
%TO.N,SWIM*%
X123190000Y-102870000D03*
%TO.P,J1,4,3V3*%
%TO.N,+3V3*%
X123190000Y-105410000D03*
%TD*%
D16*
%TO.P,R8,1*%
%TO.N,Net-(U1-PD6)*%
X127310000Y-86572500D03*
%TO.P,R8,2*%
%TO.N,GND*%
X127310000Y-88222500D03*
%TD*%
%TO.P,R10,1*%
%TO.N,ERM_MOTOR*%
X151447500Y-97600000D03*
%TO.P,R10,2*%
%TO.N,GND*%
X151447500Y-99250000D03*
%TD*%
D13*
%TO.P,R2,1*%
%TO.N,+3V3*%
X141478000Y-97091000D03*
%TO.P,R2,2*%
%TO.N,SDA*%
X141478000Y-95441000D03*
%TD*%
D34*
%TO.P,Q1,1,G*%
%TO.N,Net-(Q1-G)*%
X141605000Y-83502500D03*
%TO.P,Q1,2,S*%
%TO.N,GND*%
X141605000Y-81602500D03*
%TO.P,Q1,3,D*%
%TO.N,Net-(BZ1--)*%
X139730000Y-82552500D03*
%TD*%
D13*
%TO.P,R6,1*%
%TO.N,LED_BLUE*%
X137062500Y-86232500D03*
%TO.P,R6,2*%
%TO.N,Net-(D1-BK)*%
X137062500Y-84582500D03*
%TD*%
%TO.P,R14,1*%
%TO.N,FAN_2*%
X154622500Y-93852500D03*
%TO.P,R14,2*%
%TO.N,Net-(Q4-G)*%
X154622500Y-92202500D03*
%TD*%
D20*
%TO.P,A1,1,VIN*%
%TO.N,unconnected-(A1-VIN-Pad1)*%
X123190000Y-78740000D03*
D21*
%TO.P,A1,2,VU*%
%TO.N,unconnected-(A1-VU-Pad2)*%
X125730000Y-78740000D03*
%TO.P,A1,3,D-*%
%TO.N,unconnected-(A1-D--Pad3)*%
X128270000Y-78740000D03*
%TO.P,A1,4,D+*%
%TO.N,unconnected-(A1-D+-Pad4)*%
X130810000Y-78740000D03*
%TO.P,A1,5,GND*%
%TO.N,GND*%
X133350000Y-78740000D03*
%TO.P,A1,6,BAT*%
%TO.N,+BATT*%
X135890000Y-78740000D03*
%TO.P,A1,7,5V*%
%TO.N,+5V*%
X138430000Y-78740000D03*
%TO.P,A1,8,EN*%
%TO.N,unconnected-(A1-EN-Pad8)*%
X140970000Y-78740000D03*
%TD*%
D35*
%TO.N,+5V*%
X153797000Y-77978000D03*
%TO.N,GND*%
X157480000Y-102870000D03*
X122237500Y-85407500D03*
X138112500Y-81602500D03*
X158115000Y-80962500D03*
X157416500Y-91185500D03*
X152056000Y-81898000D03*
X133512500Y-92075000D03*
X142443000Y-98445000D03*
%TO.N,+3V3*%
X127000000Y-89852500D03*
X131752500Y-83195000D03*
%TO.N,RESET*%
X131060000Y-90125000D03*
%TO.N,SWIM*%
X142912500Y-89475000D03*
%TO.N,SCL*%
X142748000Y-94386400D03*
X145900500Y-98447500D03*
%TO.N,SDA*%
X140382120Y-94996000D03*
%TD*%
D36*
%TO.N,+BATT*%
X125407502Y-83329400D02*
X125407502Y-84432018D01*
X132857499Y-81772501D02*
X135890000Y-78740000D01*
X123507500Y-84432018D02*
X123507500Y-83571335D01*
X125232501Y-83154399D02*
X125232501Y-81772501D01*
X125232501Y-83154399D02*
X125407502Y-83329400D01*
X125232501Y-81772501D02*
X132857499Y-81772501D01*
X125120603Y-83042501D02*
X125232501Y-83154399D01*
X123507500Y-83571335D02*
X124036334Y-83042501D01*
X124036334Y-83042501D02*
X125120603Y-83042501D01*
D37*
%TO.N,+5V*%
X152056000Y-77978000D02*
X144526000Y-77978000D01*
X161347500Y-93345000D02*
X161290000Y-93287500D01*
X152056000Y-77978000D02*
X153797000Y-77978000D01*
X164782500Y-93345000D02*
X161347500Y-93345000D01*
X162072500Y-81875000D02*
X161290000Y-81092500D01*
X164782500Y-81875000D02*
X162072500Y-81875000D01*
D38*
%TO.N,GND*%
X151447500Y-102412500D02*
X153670000Y-104635000D01*
D36*
X156860000Y-89532500D02*
X156860000Y-90629000D01*
X132397500Y-91595000D02*
X122872500Y-91595000D01*
D38*
X138112500Y-84962500D02*
X139827500Y-86677500D01*
X138112500Y-81602500D02*
X138112500Y-84962500D01*
D36*
X153670000Y-104635000D02*
X157480000Y-104635000D01*
X128917500Y-89830000D02*
X129215000Y-89830000D01*
X133032500Y-91595000D02*
X133512500Y-92075000D01*
D38*
X141605000Y-81602500D02*
X138112500Y-81602500D01*
D36*
X157160000Y-80007500D02*
X158115000Y-80962500D01*
D37*
X144526000Y-79528000D02*
X152056000Y-79528000D01*
D38*
X157162500Y-82042500D02*
X157162500Y-81915000D01*
D36*
X155907500Y-80007500D02*
X157160000Y-80007500D01*
X127310000Y-88222500D02*
X128917500Y-89830000D01*
X142443000Y-99575000D02*
X142443000Y-98445000D01*
D38*
X143687500Y-93662500D02*
X144018000Y-93993000D01*
X156527500Y-92074500D02*
X157416500Y-91185500D01*
D36*
X132397500Y-91595000D02*
X133032500Y-91595000D01*
X144018000Y-96520000D02*
X143218000Y-97320000D01*
X123507500Y-86732984D02*
X124457501Y-85782983D01*
X122237500Y-85462984D02*
X123507500Y-86732984D01*
D38*
X159067500Y-82042500D02*
X159067500Y-81915000D01*
X128587500Y-91595000D02*
X128587500Y-90457500D01*
D36*
X157480000Y-102870000D02*
X157480000Y-104635000D01*
X124457501Y-85782983D02*
X124457501Y-84432018D01*
X135250000Y-92075000D02*
X133512500Y-92075000D01*
D38*
X128587500Y-90457500D02*
X129215000Y-89830000D01*
D36*
X144018000Y-95370000D02*
X144018000Y-96520000D01*
D37*
X152056000Y-79528000D02*
X152056000Y-81898000D01*
D36*
X156542500Y-100962500D02*
X156542500Y-101932500D01*
D38*
X151447500Y-99250000D02*
X151447500Y-102412500D01*
D36*
X123507500Y-86732984D02*
X123507500Y-89217500D01*
D38*
X157162500Y-81915000D02*
X158115000Y-80962500D01*
D36*
X122237500Y-85407500D02*
X122237500Y-83217502D01*
D38*
X157416500Y-91186500D02*
X158432500Y-92202500D01*
X159067500Y-81915000D02*
X158115000Y-80962500D01*
D36*
X156860000Y-90629000D02*
X157416500Y-91185500D01*
X122237500Y-85407500D02*
X122237500Y-85462984D01*
D38*
X156527500Y-92202500D02*
X156527500Y-92074500D01*
X157416500Y-91185500D02*
X157416500Y-91186500D01*
D36*
X156542500Y-101932500D02*
X157480000Y-102870000D01*
X143218000Y-97320000D02*
X143218000Y-97670000D01*
X123507500Y-89217500D02*
X123682501Y-89392501D01*
X122237500Y-83217502D02*
X123682501Y-81772501D01*
X144018000Y-93993000D02*
X144018000Y-95370000D01*
X142443000Y-98445000D02*
X143218000Y-97670000D01*
%TO.N,+3V3*%
X128587500Y-94868500D02*
X128715000Y-94996000D01*
X141478000Y-100330000D02*
X142113000Y-100965000D01*
X123825000Y-105410000D02*
X128715000Y-100520000D01*
X130492500Y-93145000D02*
X122872500Y-93145000D01*
X125407502Y-86732984D02*
X125407502Y-89217500D01*
X126540001Y-89392501D02*
X127000000Y-89852500D01*
X167322500Y-103505000D02*
X167322500Y-106045000D01*
X145993000Y-100965000D02*
X144675500Y-100965000D01*
X147383000Y-97580000D02*
X147028000Y-97225000D01*
X147383000Y-99575000D02*
X145993000Y-100965000D01*
X141478000Y-97567500D02*
X141478000Y-100330000D01*
X123190000Y-105410000D02*
X123825000Y-105410000D01*
X142113000Y-100965000D02*
X143310500Y-100965000D01*
X122872500Y-93145000D02*
X122183750Y-93145000D01*
X131752500Y-83195000D02*
X132895000Y-83195000D01*
X143310500Y-100965000D02*
X143993000Y-100282500D01*
X130492500Y-93145000D02*
X131581500Y-94234000D01*
X144018000Y-97670000D02*
X144018000Y-99550000D01*
X147383000Y-99575000D02*
X147383000Y-97580000D01*
X121602500Y-92563750D02*
X121602500Y-91122500D01*
X125407502Y-89217500D02*
X125232501Y-89392501D01*
X122260000Y-90465000D02*
X124160002Y-90465000D01*
X164782500Y-102275000D02*
X166092500Y-102275000D01*
X167322500Y-106045000D02*
X166370000Y-106997500D01*
X164782500Y-102275000D02*
X161460000Y-102275000D01*
X137762000Y-93375000D02*
X135250000Y-93375000D01*
X121602500Y-91122500D02*
X122260000Y-90465000D01*
X133932500Y-93375000D02*
X135250000Y-93375000D01*
X125232501Y-89392501D02*
X126540001Y-89392501D01*
X166092500Y-102275000D02*
X167322500Y-103505000D01*
X144675500Y-100965000D02*
X143993000Y-100282500D01*
X157480000Y-106185000D02*
X153670000Y-106185000D01*
X144018000Y-99550000D02*
X143993000Y-99575000D01*
X161460000Y-102275000D02*
X161290000Y-102105000D01*
X124160002Y-90465000D02*
X125232501Y-89392501D01*
X158292500Y-106997500D02*
X157480000Y-106185000D01*
X141478000Y-97091000D02*
X137762000Y-93375000D01*
X131581500Y-94234000D02*
X133073500Y-94234000D01*
X142113000Y-100965000D02*
X144462500Y-103314500D01*
X166370000Y-106997500D02*
X158292500Y-106997500D01*
X132895000Y-83195000D02*
X133087500Y-83002500D01*
X144462500Y-103314500D02*
X144462500Y-105410000D01*
X133073500Y-94234000D02*
X133932500Y-93375000D01*
X128715000Y-100520000D02*
X128715000Y-94996000D01*
X128587500Y-93145000D02*
X128587500Y-94868500D01*
X122183750Y-93145000D02*
X121602500Y-92563750D01*
X143993000Y-100282500D02*
X143993000Y-99575000D01*
D38*
%TO.N,Net-(BZ1--)*%
X147937500Y-82552500D02*
X148590000Y-83205000D01*
X139730000Y-82552500D02*
X147937500Y-82552500D01*
D36*
%TO.N,Net-(U3-VDD)*%
X147028000Y-95575000D02*
X147028000Y-95453000D01*
X147028000Y-95453000D02*
X145237500Y-93662500D01*
X146823000Y-95370000D02*
X147028000Y-95575000D01*
X144818000Y-95370000D02*
X146823000Y-95370000D01*
%TO.N,Net-(U1-VCAP)*%
X132817500Y-92725000D02*
X135250000Y-92725000D01*
X132397500Y-93145000D02*
X132817500Y-92725000D01*
D38*
%TO.N,RESET*%
X131060000Y-90125000D02*
X129215000Y-88280000D01*
X135250000Y-90125000D02*
X131060000Y-90125000D01*
%TO.N,Net-(D1-RK)*%
X133032500Y-83947500D02*
X133087500Y-84002500D01*
X130492500Y-83947500D02*
X133032500Y-83947500D01*
%TO.N,Net-(D1-BK)*%
X135482500Y-83002500D02*
X134687500Y-83002500D01*
X137062500Y-84582500D02*
X135482500Y-83002500D01*
%TO.N,Net-(D1-GK)*%
X135220000Y-84535000D02*
X134687500Y-84002500D01*
X135220000Y-86042500D02*
X135220000Y-84535000D01*
%TO.N,SWIM*%
X140975000Y-89475000D02*
X142912500Y-89475000D01*
%TO.N,SCL*%
X145123000Y-97670000D02*
X144818000Y-97670000D01*
X145900500Y-98447500D02*
X145123000Y-97670000D01*
X145733000Y-98615000D02*
X145900500Y-98447500D01*
X141736600Y-93375000D02*
X140975000Y-93375000D01*
X145733000Y-99575000D02*
X145733000Y-98615000D01*
X142748000Y-94386400D02*
X141736600Y-93375000D01*
%TO.N,SDA*%
X140382120Y-94617880D02*
X140975000Y-94025000D01*
X143218000Y-95370000D02*
X141549000Y-95370000D01*
X140382120Y-94996000D02*
X140382120Y-94617880D01*
X141478000Y-95441000D02*
X141478000Y-94528000D01*
X141478000Y-94528000D02*
X140975000Y-94025000D01*
X141549000Y-95370000D02*
X141478000Y-95441000D01*
%TO.N,Net-(M1-Tacho)*%
X164782500Y-84375000D02*
X163115000Y-84375000D01*
X163115000Y-84375000D02*
X162052500Y-83312500D01*
X162052500Y-83312500D02*
X160972500Y-83312500D01*
D36*
%TO.N,Net-(D3-A)*%
X157782500Y-79057500D02*
X160525000Y-79057500D01*
X161290000Y-78292500D02*
X163700000Y-78292500D01*
X163700000Y-78292500D02*
X164782500Y-79375000D01*
X160525000Y-79057500D02*
X161290000Y-78292500D01*
%TO.N,Net-(D4-A)*%
X158735000Y-88582500D02*
X160640000Y-90487500D01*
X164782500Y-90845000D02*
X161647500Y-90845000D01*
X161647500Y-90845000D02*
X161290000Y-90487500D01*
X160640000Y-90487500D02*
X161290000Y-90487500D01*
D38*
%TO.N,Net-(M2-Tacho)*%
X164505000Y-95567500D02*
X164782500Y-95845000D01*
X161480000Y-95567500D02*
X164505000Y-95567500D01*
D36*
%TO.N,Net-(D2-A)*%
X161420000Y-104775000D02*
X161290000Y-104905000D01*
X158417500Y-102032500D02*
X161290000Y-104905000D01*
X158417500Y-100012500D02*
X158417500Y-102032500D01*
X164782500Y-104775000D02*
X161420000Y-104775000D01*
D38*
%TO.N,Net-(Q1-G)*%
X141605000Y-83502500D02*
X141415000Y-83502500D01*
X141415000Y-83502500D02*
X139827500Y-85090000D01*
%TO.N,Net-(Q2-G)*%
X153540000Y-99062500D02*
X153352500Y-99250000D01*
X156542500Y-99062500D02*
X153540000Y-99062500D01*
%TO.N,Net-(Q3-G)*%
X155257500Y-82042500D02*
X154622500Y-81407500D01*
X154622500Y-79392500D02*
X155907500Y-78107500D01*
X154622500Y-81407500D02*
X154622500Y-79392500D01*
%TO.N,Net-(Q4-G)*%
X156860000Y-87632500D02*
X154622500Y-89870000D01*
X154622500Y-89870000D02*
X154622500Y-92202500D01*
%TO.N,LED_RED*%
X135250000Y-88825000D02*
X133720000Y-88825000D01*
X133720000Y-88825000D02*
X130492500Y-85597500D01*
%TO.N,LED_GREEN*%
X133570000Y-86042500D02*
X133570000Y-86495000D01*
X133570000Y-86495000D02*
X135250000Y-88175000D01*
%TO.N,LED_BLUE*%
X139005000Y-88175000D02*
X137062500Y-86232500D01*
X140975000Y-88175000D02*
X139005000Y-88175000D01*
%TO.N,ERM_MOTOR*%
X151447500Y-97600000D02*
X153352500Y-97600000D01*
X151257500Y-97600000D02*
X151447500Y-97600000D01*
X146382500Y-92725000D02*
X151257500Y-97600000D01*
X140975000Y-92725000D02*
X146382500Y-92725000D01*
%TO.N,FAN_1*%
X140975000Y-90125000D02*
X144507500Y-90125000D01*
X155257500Y-83692500D02*
X157162500Y-83692500D01*
X150940000Y-83692500D02*
X155257500Y-83692500D01*
X144507500Y-90125000D02*
X150940000Y-83692500D01*
%TO.N,FAN_2*%
X147694000Y-92449000D02*
X146670000Y-91425000D01*
X153219000Y-92449000D02*
X147694000Y-92449000D01*
X146670000Y-91425000D02*
X140975000Y-91425000D01*
X156527500Y-93852500D02*
X154622500Y-93852500D01*
X154622500Y-93852500D02*
X153219000Y-92449000D01*
%TO.N,BUZZER*%
X142240000Y-88582500D02*
X142240000Y-87440000D01*
X141997500Y-88825000D02*
X142240000Y-88582500D01*
X141477500Y-86677500D02*
X141477500Y-85090000D01*
X140975000Y-88825000D02*
X141997500Y-88825000D01*
X142240000Y-87440000D02*
X141477500Y-86677500D01*
%TO.N,FAN_2_TACHO*%
X159830000Y-95250000D02*
X158432500Y-93852500D01*
X157480000Y-94932500D02*
X149542500Y-94932500D01*
X159830000Y-95567500D02*
X159830000Y-95250000D01*
X158432500Y-93852500D02*
X158432500Y-93980000D01*
X149542500Y-94932500D02*
X146685000Y-92075000D01*
X146685000Y-92075000D02*
X140975000Y-92075000D01*
X158432500Y-93980000D02*
X157480000Y-94932500D01*
%TO.N,FAN_1_TACHO*%
X145614000Y-90775000D02*
X150981500Y-85407500D01*
X160337500Y-84962500D02*
X159067500Y-83692500D01*
X160972500Y-84962500D02*
X160337500Y-84962500D01*
X150981500Y-85407500D02*
X157352500Y-85407500D01*
X140975000Y-90775000D02*
X145614000Y-90775000D01*
X157352500Y-85407500D02*
X159067500Y-83692500D01*
%TO.N,Net-(U1-PD6)*%
X127310000Y-84207500D02*
X127952500Y-83565000D01*
X129222500Y-86572500D02*
X127310000Y-86572500D01*
X127310000Y-86572500D02*
X127310000Y-84207500D01*
X135250000Y-89475000D02*
X132125000Y-89475000D01*
X132125000Y-89475000D02*
X129222500Y-86572500D01*
%TO.N,Net-(U1-PA3)*%
X134279000Y-94996000D02*
X135250000Y-94025000D01*
X130365000Y-100595000D02*
X130735000Y-100965000D01*
X130365000Y-94996000D02*
X130365000Y-100595000D01*
X137235000Y-100965000D02*
X130735000Y-100965000D01*
X130365000Y-94996000D02*
X134279000Y-94996000D01*
%TD*%
M02*
